<svg version="1.1" id="Layer_1" xmlns="http://www.w3.org/2000/svg" xmlns:xlink="http://www.w3.org/1999/xlink" x="0px" y="0px"
	 width="100%" viewBox="0 0 500 500" enable-background="new 0 0 500 500" xml:space="preserve">
<path fill="#FFFFFF" opacity="1.000000" stroke="none" 
	d="
M278.000000,501.000000 
	C185.333359,501.000000 93.166710,501.000000 1.000049,501.000000 
	C1.000033,334.333405 1.000033,167.666794 1.000016,1.000139 
	C167.666565,1.000093 334.333130,1.000093 500.999756,1.000046 
	C500.999847,167.666519 500.999847,334.333038 500.999939,500.999786 
	C426.833344,501.000000 352.666656,501.000000 278.000000,501.000000 
M165.549881,394.024017 
	C165.814377,393.873474 166.078873,393.722961 166.343369,393.572418 
	C165.867279,393.693634 165.391174,393.814819 164.646851,394.094482 
	C164.785889,394.091034 164.924942,394.087585 165.549881,394.024017 
M112.906326,341.115234 
	C113.409508,338.837891 113.912697,336.560577 114.419563,334.266541 
	C111.838173,334.266541 109.425003,334.266541 107.449417,334.266541 
	C108.758751,336.754120 110.080627,339.265564 111.155579,342.715485 
	C111.155579,348.041016 111.155579,353.366577 111.155579,358.692108 
	C111.720917,358.703247 112.286255,358.714386 112.851593,358.725555 
	C112.851593,353.117432 112.851593,347.509338 112.906326,341.115234 
M433.705353,335.501343 
	C440.893555,332.962708 443.740753,338.254456 447.264465,343.034821 
	C447.437775,340.374512 447.398407,336.122803 446.570892,335.963440 
	C442.164429,335.114838 437.560577,335.290985 432.505859,334.965088 
	C432.172272,335.083496 431.838715,335.201904 430.812500,335.509583 
	C424.352234,340.246552 424.110779,347.352325 430.523468,352.451599 
	C433.611603,354.907227 437.279724,356.618958 440.504517,358.920654 
	C445.378662,362.399628 445.412476,365.127686 440.386841,369.373871 
	C444.804718,368.518494 447.793579,366.701447 448.905396,362.859100 
	C450.051819,358.897003 449.231995,355.154663 445.793793,352.586426 
	C442.623230,350.218109 439.159607,348.245087 435.856750,346.050201 
	C432.261383,343.660980 429.749054,340.825836 432.622559,336.067993 
	C432.622559,336.067993 432.972168,335.745972 433.705353,335.501343 
M125.909660,335.425751 
	C119.355247,340.096375 119.001450,347.221710 125.381554,352.302979 
	C128.716766,354.959229 132.629089,356.877472 136.126434,359.347534 
	C139.251282,361.554535 140.450989,364.375732 137.771805,368.192352 
	C139.693420,367.459198 141.476273,366.643860 142.566528,365.276398 
	C145.615158,361.452545 144.662338,355.600220 140.257401,352.121185 
	C137.295303,349.781708 133.800232,348.130554 130.678833,345.975586 
	C127.222511,343.589355 124.432076,340.798553 127.924171,335.951996 
	C134.462265,333.673889 136.388626,334.687958 141.638901,343.171783 
	C143.509842,335.589752 142.219055,333.866608 134.295044,334.011353 
	C131.732010,334.058167 129.181946,334.815155 125.909660,335.425751 
M403.891937,335.048035 
	C409.680267,334.354797 413.571014,337.274933 417.243439,343.248688 
	C417.024414,339.325958 416.890808,336.932922 416.741760,334.263397 
	C411.867065,334.263397 407.415436,334.263397 402.079559,334.129059 
	C399.400757,334.181885 396.721985,334.234711 393.447968,334.205383 
	C393.607697,334.851929 393.767426,335.498505 393.975891,337.063293 
	C393.976624,347.360016 393.977356,357.656738 393.501556,368.278748 
	C393.679718,368.776917 393.857880,369.275055 394.919006,369.920074 
	C397.601135,369.863708 400.283264,369.807373 403.883423,369.954102 
	C408.478088,369.954102 413.072754,369.954102 417.981476,369.954102 
	C418.449310,367.227112 418.870880,364.769989 419.292419,362.312866 
	C414.858734,367.735626 409.648651,369.994507 402.849701,368.147583 
	C402.927673,357.154480 403.005615,346.161377 403.891937,335.048035 
M320.944824,350.950317 
	C316.679474,350.926270 312.414124,350.902222 308.023621,349.969604 
	C308.023621,344.768738 308.023621,339.567841 308.023621,334.387756 
	C305.541077,334.387756 302.174805,334.387756 299.406738,334.387756 
	C299.406738,346.300201 299.406738,357.943756 299.406738,369.655884 
	C302.253967,369.655884 305.628540,369.655884 308.148956,369.655884 
	C308.148956,363.955505 308.148956,358.538788 309.053192,353.034332 
	C313.319000,353.064117 317.584778,353.093872 321.991516,354.030151 
	C321.991516,359.224365 321.991516,364.418549 321.991516,369.686279 
	C324.502838,369.686279 327.867554,369.686279 330.618408,369.686279 
	C330.618408,357.731354 330.618408,346.016846 330.618408,334.230225 
	C327.609161,334.230225 324.312378,334.230225 321.270416,334.230225 
	C321.529694,337.032471 321.903931,339.728180 321.994873,342.433411 
	C322.089386,345.243225 321.909943,348.062286 320.944824,350.950317 
M201.075226,347.159241 
	C201.926285,347.972534 203.114548,348.631592 203.569443,349.626099 
	C205.430695,353.695221 207.241318,357.805939 208.721481,362.023834 
	C209.577362,364.462799 209.767670,367.135345 210.261871,369.725586 
	C213.503189,369.725586 217.091522,369.725586 220.862961,369.725586 
	C215.810303,357.700256 210.870224,345.942810 205.930130,334.185394 
	C205.515793,334.201904 205.101440,334.218445 204.687088,334.234985 
	C203.217361,338.680786 201.747620,343.126556 199.906296,347.801056 
	C199.909058,347.989349 199.911835,348.177643 199.914612,348.365936 
	C200.075394,348.140900 200.236191,347.915863 201.075226,347.159241 
M160.404388,350.371216 
	C160.404388,345.015747 160.404388,339.660309 160.404388,334.333191 
	C157.770798,334.333191 154.484146,334.333191 151.620438,334.333191 
	C151.620438,346.209656 151.620438,357.883331 151.620438,369.746094 
	C154.814774,369.746094 158.043762,369.746094 160.913940,369.746094 
	C160.913940,363.998047 160.913940,358.449036 161.848022,352.970886 
	C165.871109,353.005188 169.894196,353.039520 174.072388,353.986176 
	C174.072388,359.198364 174.072388,364.410583 174.072388,369.711487 
	C176.846344,369.711487 180.260925,369.711487 183.087982,369.711487 
	C183.087982,357.758514 183.087982,346.041443 183.087982,334.387848 
	C179.950073,334.387848 176.584320,334.387848 173.933792,334.387848 
	C173.933792,340.101868 173.933792,345.520844 173.019531,351.045227 
	C168.984192,351.063110 164.948868,351.080994 160.404388,350.371216 
M59.159302,334.032166 
	C56.224079,334.032166 53.288857,334.032166 50.186337,334.032166 
	C50.012936,335.851318 49.875217,337.296112 49.850323,337.557251 
	C53.262726,336.775787 56.544304,336.024261 60.006760,336.166412 
	C60.006760,347.336792 60.006760,358.507172 60.006760,369.801025 
	C63.455593,369.801025 66.399551,369.801025 69.045181,369.801025 
	C69.045181,358.450348 69.045181,347.263794 69.667030,335.634094 
	C72.378647,335.634094 75.090263,335.634094 77.801888,335.634094 
	C77.802902,335.168823 77.803917,334.703522 77.804932,334.238251 
	C74.850525,334.238251 71.896111,334.238251 68.057838,334.135284 
	C65.389671,334.169586 62.721508,334.203888 59.159302,334.032166 
M283.208527,298.596466 
	C287.012512,303.559021 292.361786,302.919708 299.620941,296.635406 
	C298.925018,294.981598 298.229065,293.327820 297.248291,290.997101 
	C304.216644,294.833069 309.919800,292.888580 315.212433,285.110229 
	C313.553619,283.717987 311.775940,282.225952 310.634003,280.281128 
	C310.829193,280.109070 311.024384,279.937012 311.894775,279.936768 
	C317.613281,284.157776 322.506897,282.173004 328.400024,272.742432 
	C324.841919,270.811493 321.320831,268.900604 316.477570,266.272217 
	C320.283905,267.173950 323.110840,267.209137 325.184143,268.476837 
	C328.692688,270.622131 331.152283,269.582550 333.425201,266.980042 
	C335.551758,264.545135 337.451111,261.911774 340.102600,258.535278 
	C335.647461,257.111694 332.224823,256.018036 328.802216,254.924393 
	C330.829498,254.138016 332.973297,253.699387 334.573730,254.438049 
	C339.633667,256.773407 342.275391,253.995071 344.488281,250.236267 
	C345.720886,248.142532 346.571411,245.823868 348.014374,242.695404 
	C343.683258,242.304291 340.128662,241.983307 336.574066,241.662323 
	C338.258942,240.812668 340.079163,240.168747 341.931183,240.058441 
	C349.576630,239.603088 353.288757,235.283936 352.559052,226.985870 
	C349.940918,226.985870 347.271088,226.985870 344.439484,226.985870 
	C347.895599,225.480972 351.936920,224.882004 353.928406,222.540009 
	C356.083252,220.005814 356.325134,215.845016 357.586487,211.800034 
	C354.613617,212.052338 352.963898,212.192352 350.866119,211.854874 
	C350.713623,211.698746 350.561096,211.542618 351.061890,211.033844 
	C357.479065,208.866013 359.407959,204.659592 357.318542,197.111298 
	C355.924591,197.451477 354.524078,197.793243 352.770508,197.743027 
	C352.647919,197.616959 352.525299,197.490891 353.006348,196.985687 
	C358.539825,194.078354 360.015930,187.712097 355.694702,182.730896 
	C355.514313,182.584229 355.333893,182.437576 355.664001,181.755234 
	C356.730133,178.290970 353.491425,162.082413 351.143707,159.341522 
	C350.981537,159.152191 350.507935,159.229675 349.759735,158.819229 
	C349.609894,158.710602 349.460052,158.601990 349.634827,157.832718 
	C349.620880,150.633484 343.399384,146.566589 340.890686,140.621429 
	C340.849823,140.524628 340.059174,140.744232 339.254120,140.315826 
	C339.116150,140.162445 338.978149,140.009064 338.790192,139.165970 
	C337.254456,136.363495 336.632202,132.538193 331.640320,133.318436 
	C331.640320,118.217270 331.640320,103.286926 331.640320,88.302948 
	C276.700378,88.302948 222.170944,88.302948 167.173340,88.302948 
	C167.173340,103.354546 167.173340,118.097504 167.173340,132.702103 
	C161.441650,134.292862 154.639694,144.032425 154.953323,149.658112 
	C151.130997,149.527252 149.627548,152.083466 149.319931,158.733154 
	C149.172104,158.866821 149.024261,159.000488 148.178421,159.220718 
	C145.838913,162.914062 143.798370,166.632996 146.835205,171.185120 
	C146.724716,171.313782 146.614243,171.442444 145.800659,171.203171 
	C144.863998,172.339462 143.241531,173.412964 143.130615,174.624832 
	C142.884705,177.311432 144.210098,180.318039 143.459732,182.751694 
	C140.262207,193.122070 140.071503,193.063263 146.785202,198.259811 
	C146.785202,198.259811 146.505203,198.668259 145.838577,198.290802 
	C144.352692,197.872162 142.866821,197.453506 141.242279,196.995804 
	C140.281158,204.729721 141.402100,210.701416 149.733093,212.656464 
	C147.373779,212.432953 145.014465,212.209442 142.367706,211.958694 
	C142.659775,219.974121 144.333069,226.207962 153.506088,227.110367 
	C151.109772,227.110367 148.713455,227.110367 145.127213,227.110367 
	C146.695831,230.994858 147.267426,234.769821 149.419144,237.060684 
	C151.480637,239.255539 155.182648,239.909561 158.079697,241.203247 
	C156.400360,241.764633 154.094269,242.535553 151.612259,243.365280 
	C152.328140,245.271423 152.755768,246.697189 153.382309,248.029404 
	C156.356720,254.353928 158.339966,255.295349 165.500732,254.168701 
	C166.963058,253.938629 168.492554,254.135406 169.991074,254.135406 
	C168.338104,255.567139 166.585953,255.777527 164.953537,256.337158 
	C163.293335,256.906281 161.751099,257.819519 159.827698,258.739685 
	C161.093033,260.899506 162.002655,262.852295 163.268143,264.537872 
	C167.207962,269.785553 168.952652,270.155731 175.292221,267.870209 
	C176.938416,267.276733 178.753357,267.151367 181.445084,266.624023 
	C177.284424,269.110931 174.035721,271.052734 170.445221,273.198853 
	C175.508484,278.688049 178.990555,285.477631 187.846725,281.420746 
	C186.685867,282.949249 185.525009,284.477722 184.102203,286.351105 
	C189.483139,291.112946 194.336761,296.758789 201.940292,290.762390 
	C201.380844,293.234833 199.722641,296.169678 200.577515,297.566498 
	C203.804581,302.839386 213.218964,302.450684 216.703873,297.364227 
	C217.352188,296.417938 218.207031,295.613159 218.966568,294.743042 
	C219.234314,294.924072 219.502060,295.105103 219.769806,295.286102 
	C218.473831,298.187103 217.177872,301.088074 215.904846,303.937683 
	C225.159988,309.302612 235.448303,306.638306 235.913788,298.510406 
	C239.199097,303.360535 242.999451,306.710052 248.807861,307.043304 
	C254.834229,307.389069 258.957947,304.154846 262.600952,299.888245 
	C267.748352,307.923737 276.123993,309.356873 283.026611,303.541840 
	C282.562622,302.185944 282.081970,300.781372 282.198669,298.735931 
	C282.380493,298.507355 282.562286,298.278778 283.208527,298.596466 
M236.561401,369.840027 
	C236.561401,364.933350 236.561401,360.026672 236.561401,355.119995 
	C237.236542,354.859680 237.911697,354.599365 238.586838,354.339050 
	C240.196899,356.364258 241.993973,358.271820 243.363174,360.448547 
	C244.669861,362.525879 245.226608,365.103333 246.649780,367.073151 
	C249.795853,371.427704 253.671661,371.121124 256.623291,366.795898 
	C253.297760,362.471649 250.020462,358.210144 246.732010,353.934113 
	C246.609665,354.009033 247.141769,353.586365 247.744568,353.329559 
	C252.163589,351.447083 255.724655,348.826691 254.967468,343.356628 
	C254.264771,338.280243 250.237671,336.037506 245.946716,335.305969 
	C239.858109,334.267883 233.605850,334.189697 227.722229,333.724945 
	C227.722229,346.321075 227.722229,357.993225 227.722229,369.937561 
	C230.455261,369.937561 233.100677,369.937561 236.561401,369.840027 
M93.841759,351.409851 
	C93.841759,345.726715 93.841759,340.043549 93.841759,334.409485 
	C91.251434,334.409485 87.698334,334.409485 84.526314,334.409485 
	C84.795609,337.271576 85.134827,339.864868 85.265022,342.468597 
	C85.546715,348.102234 85.418533,353.774261 86.028030,359.368469 
	C86.595451,364.576447 89.788391,368.075104 94.883781,369.632019 
	C100.792816,371.437561 106.999619,369.417542 108.672546,364.841461 
	C107.536110,365.213593 106.659889,365.577881 105.748070,365.786774 
	C98.918930,367.351257 94.399178,363.929535 93.954948,356.858734 
	C93.861214,355.366577 93.878273,353.867493 93.841759,351.409851 
M270.271912,367.437073 
	C280.273499,372.332367 290.302002,369.458160 291.491974,361.111328 
	C285.391754,364.803467 279.224182,365.488647 274.178772,360.038605 
	C267.446259,352.766174 268.207916,344.548126 273.562897,335.164246 
	C267.182190,337.947723 264.132141,341.792053 262.722137,347.145172 
	C260.566620,355.328766 263.320282,361.787476 270.271912,367.437073 
M348.208649,355.455994 
	C348.208649,348.410339 348.208649,341.364716 348.208649,334.301300 
	C345.790619,334.301300 342.358002,334.301300 339.488495,334.301300 
	C339.488495,346.232635 339.488495,357.974304 339.488495,369.810059 
	C342.568848,369.810059 345.865326,369.810059 348.209473,369.810059 
	C348.209473,365.242126 348.209473,360.838287 348.208649,355.455994 
M374.873199,363.441223 
	C375.588013,361.455139 376.302856,359.469025 377.012878,357.496277 
	C373.383911,356.044678 366.752960,339.547821 367.473999,334.216248 
	C363.836273,334.216248 360.211487,334.216248 356.468872,334.216248 
	C361.472321,346.181213 366.415405,358.001770 371.680328,370.591949 
	C372.864838,367.953583 373.722900,366.042297 374.873199,363.441223 
M281.200714,335.865417 
	C283.799530,338.716400 286.398346,341.567383 289.259338,344.706024 
	C289.843048,341.898834 290.393433,339.251770 291.131134,335.703918 
	C285.749969,334.934845 280.693054,334.212097 275.636169,333.489349 
	C275.570648,333.887421 275.505157,334.285461 275.439667,334.683533 
	C277.145660,334.928741 278.851685,335.173950 281.200714,335.865417 
M410.177673,354.190887 
	C411.233002,355.329407 412.288361,356.467957 413.679504,357.968781 
	C413.679504,353.674774 413.679504,350.130646 413.679504,346.550537 
	C411.284546,348.606232 409.157562,350.431915 406.976257,352.304199 
	C407.940735,352.832611 408.772858,353.288483 410.177673,354.190887 
M379.306610,334.921814 
	C380.490509,337.586090 381.674408,340.250336 382.792206,342.765778 
	C384.209656,340.160187 385.764435,337.302185 387.417023,334.264435 
	C384.531555,334.264435 381.923340,334.264435 379.306610,334.921814 
M194.537750,361.581604 
	C193.056870,364.250336 191.576004,366.919067 190.000793,369.757782 
	C192.764084,369.757782 195.119675,369.757782 197.006378,369.757782 
	C196.280594,366.998932 195.586288,364.359711 194.537750,361.581604 
M120.962250,367.021790 
	C123.404701,368.134308 125.847160,369.246826 128.289612,370.359344 
	C128.354187,370.105743 128.418747,369.852173 128.483322,369.598572 
	C126.022797,366.734772 123.562271,363.870972 120.941994,360.821228 
	C120.941994,362.644470 120.941994,364.422577 120.962250,367.021790 
M427.840576,363.280670 
	C427.239014,363.550049 426.202118,363.710907 426.103729,364.105713 
	C425.186371,367.786285 427.425110,369.335815 433.498077,369.431610 
	C431.819519,367.632782 430.070557,365.758545 427.840576,363.280670 
M197.321808,355.423706 
	C196.689224,356.366730 196.056625,357.309753 195.424057,358.252808 
	C196.157913,358.459229 196.891785,358.665649 197.625641,358.872070 
	C197.680862,357.874756 197.736084,356.877441 197.321808,355.423706 
M168.762665,396.347992 
	C168.573608,397.377258 168.384537,398.406525 168.195465,399.435791 
	C168.902924,399.411224 169.610382,399.386658 170.317841,399.362122 
	C170.030304,398.294861 169.742767,397.227631 168.762665,396.347992 
M198.204865,353.621521 
	C198.254105,353.260010 198.303360,352.898499 198.352600,352.536957 
	C198.094269,352.535187 197.835953,352.533447 197.577621,352.531708 
	C197.616928,352.894257 197.656235,353.256836 198.204865,353.621521 
z"/>
<path fill="#254367" opacity="1.000000" stroke="none" 
	d="
M351.314148,212.332367 
	C352.963898,212.192352 354.613617,212.052338 357.586487,211.800034 
	C356.325134,215.845016 356.083252,220.005814 353.928406,222.540009 
	C351.936920,224.882004 347.895599,225.480972 344.439484,226.985870 
	C347.271088,226.985870 349.940918,226.985870 352.559052,226.985870 
	C353.288757,235.283936 349.576630,239.603088 341.931183,240.058441 
	C340.079163,240.168747 338.258942,240.812668 336.574066,241.662323 
	C340.128662,241.983307 343.683258,242.304291 348.014374,242.695404 
	C346.571411,245.823868 345.720886,248.142532 344.488281,250.236267 
	C342.275391,253.995071 339.633667,256.773407 334.573730,254.438049 
	C332.973297,253.699387 330.829498,254.138016 328.802216,254.924393 
	C332.224823,256.018036 335.647461,257.111694 340.102600,258.535278 
	C337.451111,261.911774 335.551758,264.545135 333.425201,266.980042 
	C331.152283,269.582550 328.692688,270.622131 325.184143,268.476837 
	C323.110840,267.209137 320.283905,267.173950 316.477570,266.272217 
	C321.320831,268.900604 324.841919,270.811493 328.400024,272.742432 
	C322.506897,282.173004 317.613281,284.157776 311.337006,279.544128 
	C309.259888,278.560028 307.740570,277.968597 306.221222,277.377136 
	C306.078186,277.664490 305.935150,277.951843 305.792114,278.239166 
	C307.194153,279.070770 308.596191,279.902344 309.998230,280.733917 
	C311.775940,282.225952 313.553619,283.717987 315.212433,285.110229 
	C309.919800,292.888580 304.216644,294.833069 297.248291,290.997101 
	C298.229065,293.327820 298.925018,294.981598 299.620758,296.635193 
	C292.361786,302.919708 287.012512,303.559021 282.876892,297.958496 
	C281.968506,296.812286 281.391785,296.304016 280.815063,295.795746 
	C280.586212,295.958191 280.357391,296.120636 280.128571,296.283081 
	C280.619476,297.314331 281.110413,298.345581 281.601318,299.376831 
	C282.081970,300.781372 282.562622,302.185944 283.026611,303.541840 
	C276.123993,309.356873 267.748352,307.923737 262.600952,299.888245 
	C258.957947,304.154846 254.834229,307.389069 248.807861,307.043304 
	C242.999451,306.710052 239.199097,303.360535 235.913788,298.510406 
	C235.448303,306.638306 225.159988,309.302612 215.904846,303.937683 
	C217.177872,301.088074 218.473831,298.187103 219.769806,295.286102 
	C219.502060,295.105103 219.234314,294.924072 218.966568,294.743042 
	C218.207031,295.613159 217.352188,296.417938 216.703873,297.364227 
	C213.218964,302.450684 203.804581,302.839386 200.577515,297.566498 
	C199.722641,296.169678 201.380844,293.234833 201.940292,290.762390 
	C194.336761,296.758789 189.483139,291.112946 184.102203,286.351105 
	C185.525009,284.477722 186.685867,282.949249 187.846725,281.420746 
	C178.990555,285.477631 175.508484,278.688049 170.445221,273.198853 
	C174.035721,271.052734 177.284424,269.110931 181.445084,266.624023 
	C178.753357,267.151367 176.938416,267.276733 175.292221,267.870209 
	C168.952652,270.155731 167.207962,269.785553 163.268143,264.537872 
	C162.002655,262.852295 161.093033,260.899506 159.827698,258.739685 
	C161.751099,257.819519 163.293335,256.906281 164.953537,256.337158 
	C166.585953,255.777527 168.338104,255.567139 169.991074,254.135406 
	C168.492554,254.135406 166.963058,253.938629 165.500732,254.168701 
	C158.339966,255.295349 156.356720,254.353928 153.382309,248.029404 
	C152.755768,246.697189 152.328140,245.271423 151.612259,243.365280 
	C154.094269,242.535553 156.400360,241.764633 158.079697,241.203247 
	C155.182648,239.909561 151.480637,239.255539 149.419144,237.060684 
	C147.267426,234.769821 146.695831,230.994858 145.127213,227.110367 
	C148.713455,227.110367 151.109772,227.110367 153.506088,227.110367 
	C144.333069,226.207962 142.659775,219.974121 142.367706,211.958694 
	C145.014465,212.209442 147.373779,212.432953 149.733093,212.656464 
	C141.402100,210.701416 140.281158,204.729721 141.242279,196.995804 
	C142.866821,197.453506 144.352692,197.872162 146.423340,198.615631 
	C147.277832,198.867691 147.547546,198.794952 147.817261,198.722198 
	C147.583145,198.444901 147.349030,198.167618 147.114914,197.890320 
	C140.071503,193.063263 140.262207,193.122070 143.459732,182.751694 
	C144.210098,180.318039 142.884705,177.311432 143.130615,174.624832 
	C143.241531,173.412964 144.863998,172.339462 146.411224,171.595993 
	C147.388611,171.876495 147.755432,171.764175 148.122269,171.651855 
	C147.810150,171.373428 147.498032,171.094971 147.185913,170.816528 
	C143.798370,166.632996 145.838913,162.914062 148.637939,159.452652 
	C149.725632,160.129898 150.353821,160.575211 151.052612,161.309479 
	C151.379059,161.615936 151.634933,161.633408 151.890793,161.650879 
	C151.761108,161.258057 151.631439,160.865234 151.396820,160.218124 
	C150.799240,159.441330 150.306595,158.918793 149.813950,158.396271 
	C149.627548,152.083466 151.130997,149.527252 154.953323,149.658112 
	C154.639694,144.032425 161.441650,134.292862 167.173340,132.702103 
	C167.173340,118.097504 167.173340,103.354546 167.173340,88.302948 
	C222.170944,88.302948 276.700378,88.302948 331.640320,88.302948 
	C331.640320,103.286926 331.640320,118.217270 331.640320,133.318436 
	C336.632202,132.538193 337.254456,136.363495 338.537781,139.650085 
	C338.264404,140.692078 338.243439,141.249969 338.222504,141.807861 
	C338.687805,141.477295 339.153107,141.146744 339.618408,140.816193 
	C340.059174,140.744232 340.849823,140.524628 340.890686,140.621429 
	C343.399384,146.566589 349.620880,150.633484 349.263794,158.416016 
	C349.020569,159.336700 349.148438,159.674103 349.276276,160.011475 
	C349.577209,159.735352 349.878174,159.459213 350.179138,159.183075 
	C350.507935,159.229675 350.981537,159.152191 351.143707,159.341522 
	C353.491425,162.082413 356.730133,178.290970 355.090546,182.144424 
	C353.625641,183.253723 352.734192,183.973846 351.842743,184.693954 
	C352.015930,184.947556 352.189148,185.201157 352.362366,185.454758 
	C353.641571,184.707062 354.920807,183.959351 356.200043,183.211655 
	C360.015930,187.712097 358.539825,194.078354 352.442200,197.347534 
	C351.681549,198.068054 351.485046,198.426712 351.288513,198.785370 
	C351.900208,198.568588 352.511902,198.351807 353.123566,198.135025 
	C354.524078,197.793243 355.924591,197.451477 357.318542,197.111298 
	C359.407959,204.659592 357.479065,208.866013 350.461487,211.389359 
	C349.304840,211.956360 348.748596,212.167831 348.192322,212.379318 
	C348.260590,212.611481 348.328888,212.843643 348.397156,213.075821 
	C349.369476,212.828003 350.341827,212.580185 351.314148,212.332367 
M279.908905,191.634460 
	C279.794891,191.590515 279.680908,191.546570 279.566895,191.502625 
	C279.692993,191.684006 279.819061,191.865372 280.053467,192.430511 
	C280.243927,192.425964 280.434387,192.421402 280.624847,192.416855 
	C280.429840,192.261902 280.234833,192.106949 279.908905,191.634460 
M156.819397,181.204132 
	C157.106262,181.033951 157.336533,180.806488 158.175018,180.310165 
	C160.632614,183.974487 161.408585,187.479095 157.109085,190.422150 
	C161.375305,194.320358 161.850937,198.970428 158.324142,201.514740 
	C159.435944,202.888443 160.958679,204.105835 161.555664,205.675354 
	C162.304062,207.642899 162.852097,210.008514 162.462692,212.002365 
	C162.015030,214.294586 160.447693,216.368134 159.081757,219.191483 
	C159.081757,220.069504 159.081757,220.947525 159.081757,221.825546 
	C159.297668,221.841904 159.513565,221.858246 159.729477,221.874588 
	C159.887680,220.977158 160.045898,220.079727 160.759003,218.760284 
	C161.344360,217.480103 161.929733,216.199936 162.777237,214.346451 
	C165.650711,218.339005 169.405640,221.168564 165.889923,226.315796 
	C164.704941,228.050674 164.632385,230.545364 164.051407,232.692795 
	C164.489044,232.817734 164.926682,232.942688 165.364319,233.067642 
	C166.035553,230.936401 166.706787,228.805176 167.549042,226.130966 
	C169.656769,228.420578 171.320663,230.228073 173.114319,232.773300 
	C173.352432,233.698532 173.942841,234.697906 173.766449,235.535889 
	C173.076202,238.815002 172.143707,242.043121 171.301239,245.290176 
	C171.749725,245.403061 172.198212,245.515945 172.646698,245.628815 
	C173.142639,243.217239 173.638580,240.805649 174.094925,238.586533 
	C184.985184,241.483490 179.528549,250.469955 181.921753,256.632629 
	C182.098511,254.163788 182.275269,251.694946 182.479218,248.846222 
	C187.651718,251.172348 192.246048,252.886581 190.950409,259.655365 
	C190.533310,261.834473 191.744354,264.325226 192.210556,266.673370 
	C192.504044,266.637787 192.797516,266.602173 193.091003,266.566589 
	C193.091003,264.060181 193.091003,261.553772 193.091003,258.389893 
	C195.423965,259.307617 197.408279,259.748260 198.974365,260.807373 
	C200.328079,261.722870 201.727921,263.179962 202.191574,264.680603 
	C203.314362,268.314606 203.903046,272.113647 204.706985,275.846161 
	C205.177597,275.723480 205.648224,275.600830 206.118835,275.478149 
	C205.421127,272.558167 204.723419,269.638184 203.819351,265.854584 
	C208.017410,266.948456 211.298065,267.803284 214.578720,268.658142 
	C214.169357,268.984314 213.759979,269.310486 213.350601,269.636658 
	C215.267349,274.090973 217.184097,278.545258 219.100845,282.999573 
	C219.503281,282.849915 219.905731,282.700287 220.308167,282.550629 
	C219.075714,279.192902 217.843262,275.835175 216.591248,272.424133 
	C227.472824,269.877991 235.802307,277.277069 236.815765,284.290344 
	C239.331741,282.298187 241.699280,280.423584 244.403702,278.282227 
	C231.128311,270.704437 218.192688,263.336426 205.272736,255.941055 
	C193.518280,249.212814 180.806534,243.689453 173.544006,230.373550 
	C168.919037,222.417099 167.321289,213.704391 167.288528,204.650345 
	C167.229828,188.426590 167.271973,172.202454 167.271973,155.815659 
	C165.542587,157.406433 164.113297,158.721176 162.577393,160.133972 
	C163.481720,166.038116 163.481720,166.038116 157.340103,170.097473 
	C157.316757,170.359985 157.293411,170.622513 157.270065,170.885025 
	C157.677444,170.769455 158.084839,170.653885 159.155106,170.264648 
	C162.021271,173.755249 161.567886,175.682785 156.371857,180.006714 
	C156.210754,180.302307 156.049652,180.597916 155.351395,181.037170 
	C155.336792,181.273438 155.322189,181.509705 155.307571,181.745972 
	C155.653854,181.608139 156.000122,181.470306 156.819397,181.204132 
M146.022293,184.988434 
	C146.372971,184.865814 146.723663,184.743195 147.074341,184.620575 
	C146.769989,184.361298 146.465637,184.102005 145.756332,183.176544 
	C145.128052,183.032944 144.499771,182.889343 143.871490,182.745743 
	C143.792862,182.954147 143.714249,183.162552 143.635620,183.370956 
	C144.256256,183.791092 144.876877,184.211227 146.022293,184.988434 
M340.957977,170.809174 
	C341.210510,170.791885 341.463043,170.774612 341.715576,170.757324 
	C341.516479,170.467148 341.317383,170.176956 340.824951,169.208847 
	C335.552368,167.539688 335.149231,163.844696 336.433258,160.424011 
	C334.656860,158.253250 333.321472,156.621368 331.866913,154.843857 
	C331.866913,156.229462 331.868805,157.656403 331.866608,159.083359 
	C331.842468,174.894852 331.977295,190.708618 331.751587,206.517242 
	C331.486145,225.115479 323.328827,239.260712 307.071075,248.542603 
	C300.307220,252.404236 293.492798,256.177185 286.720581,260.024323 
	C276.098389,266.058502 265.492432,272.121368 254.860992,278.182678 
	C257.764587,280.829346 260.344757,283.181183 262.975616,285.579224 
	C261.304932,278.036713 272.693481,269.467865 282.857544,272.499115 
	C281.711975,275.330109 280.581635,278.123444 279.451294,280.916748 
	C279.838318,281.084595 280.225342,281.252441 280.612335,281.420288 
	C282.084625,278.394104 284.879852,275.293854 284.715515,272.359375 
	C284.476044,268.082062 287.000946,267.967865 289.440918,267.199554 
	C291.088135,266.680878 292.879089,266.618683 295.363739,266.235352 
	C294.603699,269.214386 294.012817,271.530273 293.421936,273.846191 
	C293.868286,273.979309 294.314606,274.112427 294.760925,274.245575 
	C295.549591,271.712860 297.085510,269.132660 296.928497,266.660004 
	C296.751709,263.875427 296.861786,262.008026 299.660675,260.987000 
	C301.850342,260.188263 304.029755,259.361389 306.816284,258.322327 
	C306.356201,261.875946 306.040741,264.312592 305.223053,267.225555 
	C305.223053,268.059998 305.223053,268.894470 305.223053,271.080780 
	C306.050568,269.112305 306.354218,268.389984 306.957184,266.950623 
	C307.584808,264.039764 309.429443,260.700989 308.587677,258.306763 
	C306.814941,253.264572 310.534637,252.412354 313.069916,250.528381 
	C314.057068,249.794830 315.403870,249.545303 317.093933,248.873856 
	C316.866608,252.547714 316.672089,255.691910 316.477539,258.836090 
	C316.936340,258.860413 317.395172,258.884735 317.853973,258.909058 
	C317.853973,254.937424 317.865997,250.965698 317.842896,246.994202 
	C317.838745,246.280411 317.345459,245.261017 317.663452,244.903702 
	C319.768372,242.538284 322.033081,240.315048 324.245789,238.045532 
	C324.707123,238.276733 325.168457,238.507935 325.629791,238.739136 
	C325.838959,242.626633 326.048096,246.514114 326.257233,250.401596 
	C327.010803,246.268417 327.134827,242.142059 326.945740,238.030121 
	C326.876434,236.523697 325.239349,234.613327 325.751495,233.647980 
	C327.131989,231.045822 329.284393,228.853180 331.699158,225.772430 
	C332.551361,228.603714 333.034363,230.208450 333.517365,231.813202 
	C333.984131,229.079559 333.725616,226.485855 332.678284,224.263992 
	C331.154205,221.030731 333.460663,216.337280 337.573425,216.254898 
	C337.857513,217.101974 338.141602,217.949051 338.425659,218.796112 
	C338.702393,218.718079 338.979126,218.640030 339.255859,218.561996 
	C338.914978,217.302795 338.574127,216.043594 338.142059,214.032913 
	C335.228729,209.825745 335.516968,207.842438 339.919281,203.022797 
	C340.540680,203.756836 341.152832,204.479996 341.803711,205.779510 
	C342.200317,206.323776 342.596924,206.868057 342.993561,207.412323 
	C343.202576,207.264053 343.411621,207.115799 343.620636,206.967529 
	C343.210144,206.184326 342.799683,205.401108 342.240570,203.964752 
	C341.060364,202.464310 339.880127,200.963867 338.096863,198.696762 
	C338.955414,196.366379 340.156708,193.105637 341.421936,189.671326 
	C338.567627,187.363403 338.538300,182.981583 341.797607,179.244446 
	C337.551819,176.560135 337.037537,172.615555 340.957977,170.809174 
M174.811310,173.741760 
	C174.810669,185.220642 174.783966,196.699615 174.816956,208.178406 
	C174.847687,218.869186 178.598862,228.288010 186.442734,235.344360 
	C192.040878,240.380447 198.859085,244.060287 204.162155,247.682312 
	C209.299698,244.367081 213.567169,245.825989 217.807129,245.765411 
	C217.807129,247.057419 218.025269,247.952377 217.771530,248.683578 
	C216.191650,253.236221 218.273987,255.487976 222.248352,257.518738 
	C229.931076,261.444336 237.309143,265.963013 244.868027,270.137054 
	C246.397919,270.981842 248.169342,271.389252 250.582718,272.116272 
	C255.402054,269.503571 260.162476,266.772980 265.063080,264.322906 
	C267.951447,262.878815 268.994598,260.983215 268.949036,257.666626 
	C268.747681,243.012436 268.870056,228.353912 268.849823,213.696991 
	C268.847839,212.258286 268.672150,210.819824 268.576141,209.367126 
	C266.677948,209.153137 265.161469,209.131760 263.719543,208.793045 
	C258.225952,207.502594 254.469925,202.192429 254.898819,196.476212 
	C255.314651,190.933624 259.575775,186.089325 265.109711,186.005386 
	C280.593658,185.770523 296.086792,185.746704 311.569366,186.025833 
	C317.189514,186.127136 321.577026,191.406433 321.845093,197.101807 
	C322.084167,202.181076 317.821350,207.730026 312.731140,208.849594 
	C311.311584,209.161819 309.836212,209.220444 308.313843,209.404175 
	C308.313843,219.313232 308.313843,228.971863 308.313843,238.859573 
	C314.794281,234.923950 320.354523,227.956818 322.525665,219.852127 
	C326.686554,204.319778 324.421967,188.451477 324.561493,171.830750 
	C324.561493,146.433075 324.561493,121.035385 324.561493,95.331573 
	C299.299683,95.331573 274.562744,95.331573 248.949829,95.144554 
	C224.412964,95.144554 199.876099,95.144554 174.972275,95.144554 
	C174.972275,121.395378 174.972275,147.092361 174.811310,173.741760 
M243.077927,283.372925 
	C238.180878,288.093628 237.059540,293.089996 239.796036,297.996399 
	C242.254623,302.404572 247.452713,304.775909 251.953064,303.542419 
	C258.634216,301.711212 262.408295,295.522675 260.458313,289.595978 
	C258.037720,282.238922 251.662598,279.716583 243.077927,283.372925 
M283.471344,253.264465 
	C284.273865,251.819778 285.756165,250.383255 285.773621,248.929138 
	C285.947205,234.483383 285.895935,220.034668 285.852051,205.586945 
	C285.847687,204.142853 285.472809,202.699890 285.177338,200.598068 
	C283.995636,201.623978 283.327209,201.932495 283.325409,202.244812 
	C283.229401,219.007614 283.189514,235.770737 283.471344,253.264465 
M293.151154,234.492310 
	C293.151154,223.578171 293.151154,212.664032 293.151154,201.749878 
	C292.628998,201.763794 292.106873,201.777695 291.584717,201.791595 
	C291.584717,217.364594 291.584717,232.937592 291.584717,248.510590 
	C292.106934,248.522736 292.629120,248.534866 293.151337,248.547012 
	C293.151337,244.193634 293.151337,239.840256 293.151154,234.492310 
M300.028229,208.743927 
	C299.832489,206.704056 299.636719,204.664169 299.440948,202.624298 
	C299.141235,202.676025 298.841492,202.727768 298.541748,202.779510 
	C298.541748,216.681351 298.541748,230.583206 298.541748,244.485046 
	C299.037231,244.487167 299.532684,244.489304 300.028168,244.491425 
	C300.028168,232.889908 300.028168,221.288406 300.028229,208.743927 
M305.006622,212.805710 
	C304.865540,211.372009 304.724426,209.938309 304.583344,208.504608 
	C304.282501,208.560837 303.981689,208.617050 303.680847,208.673279 
	C303.680847,219.570618 303.680847,230.467972 303.680847,241.365311 
	C304.122803,241.363113 304.564728,241.360916 305.006683,241.358719 
	C305.006683,232.152298 305.006683,222.945892 305.006622,212.805710 
M278.133240,249.376358 
	C278.133240,233.861496 278.133240,218.346634 278.133240,202.831772 
	C277.856567,202.835938 277.579895,202.840088 277.303223,202.844238 
	C277.303223,220.637711 277.303223,238.431198 277.303223,256.224670 
	C277.579956,256.229034 277.856659,256.233429 278.133392,256.237793 
	C278.133392,254.269516 278.133392,252.301239 278.133240,249.376358 
M277.522278,188.012543 
	C273.713745,188.012543 269.905212,188.012543 266.096680,188.012543 
	C266.101379,188.424469 266.106049,188.836380 266.110748,189.248306 
	C281.419373,189.248306 296.727997,189.248306 312.036621,189.248306 
	C312.045532,188.836395 312.054443,188.424469 312.063354,188.012558 
	C300.880615,188.012558 289.697906,188.012558 277.522278,188.012543 
M272.056335,220.523849 
	C272.056335,233.314575 272.056335,246.105301 272.056335,258.896027 
	C272.252930,258.892548 272.449524,258.889069 272.646118,258.885590 
	C272.646118,242.290649 272.646118,225.695709 272.646118,209.100784 
	C272.449554,209.100601 272.253021,209.100433 272.056458,209.100250 
	C272.056458,212.579010 272.056458,216.057785 272.056335,220.523849 
M277.317871,194.570648 
	C277.453094,195.998871 277.179901,197.686737 277.865509,198.765015 
	C278.330994,199.497070 280.375153,199.890564 281.281586,199.480698 
	C282.106689,199.107590 282.541931,197.484222 282.765137,196.337265 
	C282.871368,195.791550 282.084991,195.072113 281.593933,194.248550 
	C281.016907,195.657181 280.580627,196.722168 279.961273,198.234085 
	C279.092865,196.667801 278.545349,195.680328 277.317871,194.570648 
M190.268982,280.244019 
	C191.056381,279.658600 191.843796,279.073181 192.631195,278.487732 
	C192.421661,278.166229 192.212128,277.844696 192.002594,277.523193 
	C190.444977,278.426270 188.887375,279.329346 187.329758,280.232452 
	C187.532867,280.593964 187.735977,280.955475 187.939087,281.317017 
	C188.504944,281.135925 189.070786,280.954834 190.268982,280.244019 
M294.670441,288.475830 
	C294.100067,288.019989 293.529663,287.564117 292.959290,287.108246 
	C292.811401,287.330231 292.663513,287.552185 292.515625,287.774139 
	C292.956940,287.965515 293.398224,288.156860 294.670441,288.475830 
M276.468933,192.599655 
	C276.521240,192.352615 276.573517,192.105560 276.625793,191.858521 
	C276.483917,192.018784 276.342041,192.179062 276.468933,192.599655 
M278.996429,295.279633 
	C279.382996,295.415680 279.769562,295.551758 280.156097,295.687805 
	C280.204865,295.280396 280.253632,294.873016 280.302429,294.465607 
	C279.774872,294.419281 279.247345,294.372955 278.996429,295.279633 
M351.243317,171.240921 
	C351.709137,171.404343 352.172089,171.579025 352.648773,171.699600 
	C352.673920,171.705963 352.815033,171.253906 352.902130,171.015244 
	C352.547272,170.908615 352.192383,170.801971 351.243317,171.240921 
M219.521393,294.513977 
	C220.014374,294.435333 220.523560,294.400879 220.983658,294.232361 
	C221.056107,294.205841 220.906281,293.572357 220.859222,293.219513 
	C220.481613,293.351776 220.103989,293.484070 219.521393,294.513977 
M205.281967,288.347717 
	C205.339645,287.962067 205.397339,287.576416 205.455032,287.190735 
	C205.180954,287.159576 204.676147,287.071411 204.667633,287.105865 
	C204.551804,287.574707 204.504745,288.060547 205.281967,288.347717 
M261.548126,190.335114 
	C261.548126,190.335114 261.412415,190.594681 261.412415,190.594681 
	C261.412415,190.594681 261.723877,190.543365 261.548126,190.335114 
M263.765228,189.519989 
	C263.593445,189.501617 263.421692,189.483246 263.249908,189.464874 
	C263.327820,189.547958 263.405731,189.631027 263.765228,189.519989 
z"/>
<path fill="#2A486C" opacity="1.000000" stroke="none" 
	d="
M236.153748,369.888794 
	C233.100677,369.937561 230.455261,369.937561 227.722229,369.937561 
	C227.722229,357.993225 227.722229,346.321075 227.722229,333.724945 
	C233.605850,334.189697 239.858109,334.267883 245.946716,335.305969 
	C250.237671,336.037506 254.264771,338.280243 254.967468,343.356628 
	C255.724655,348.826691 252.163589,351.447083 247.744568,353.329559 
	C247.141769,353.586365 246.609665,354.009033 246.732010,353.934113 
	C250.020462,358.210144 253.297760,362.471649 256.623291,366.795898 
	C253.671661,371.121124 249.795853,371.427704 246.649780,367.073151 
	C245.226608,365.103333 244.669861,362.525879 243.363174,360.448547 
	C241.993973,358.271820 240.196899,356.364258 238.586838,354.339050 
	C237.911697,354.599365 237.236542,354.859680 236.561401,355.119995 
	C236.561401,360.026672 236.561401,364.933350 236.153748,369.888794 
M243.650253,336.706329 
	C241.695099,336.017609 239.739929,335.328888 237.080643,334.392120 
	C237.080643,341.441742 237.080643,347.618378 237.080643,355.690308 
	C240.633072,353.432648 244.129608,352.375580 245.553909,350.049591 
	C248.094772,345.900146 247.861877,341.153992 243.650253,336.706329 
z"/>
<path fill="#2C4A6D" opacity="1.000000" stroke="none" 
	d="
M93.843018,351.890717 
	C93.878273,353.867493 93.861214,355.366577 93.954948,356.858734 
	C94.399178,363.929535 98.918930,367.351257 105.748070,365.786774 
	C106.659889,365.577881 107.536110,365.213593 108.672546,364.841461 
	C106.999619,369.417542 100.792816,371.437561 94.883781,369.632019 
	C89.788391,368.075104 86.595451,364.576447 86.028030,359.368469 
	C85.418533,353.774261 85.546715,348.102234 85.265022,342.468597 
	C85.134827,339.864868 84.795609,337.271576 84.526314,334.409485 
	C87.698334,334.409485 91.251434,334.409485 93.841759,334.409485 
	C93.841759,340.043549 93.841759,345.726715 93.843018,351.890717 
z"/>
<path fill="#264569" opacity="1.000000" stroke="none" 
	d="
M269.975311,367.210449 
	C263.320282,361.787476 260.566620,355.328766 262.722137,347.145172 
	C264.132141,341.792053 267.182190,337.947723 273.562897,335.164246 
	C268.207916,344.548126 267.446259,352.766174 274.178772,360.038605 
	C279.224182,365.488647 285.391754,364.803467 291.491974,361.111328 
	C290.302002,369.458160 280.273499,372.332367 269.975311,367.210449 
z"/>
<path fill="#264569" opacity="1.000000" stroke="none" 
	d="
M173.933792,350.939850 
	C173.933792,345.520844 173.933792,340.101868 173.933792,334.387848 
	C176.584320,334.387848 179.950073,334.387848 183.087982,334.387848 
	C183.087982,346.041443 183.087982,357.758514 183.087982,369.711487 
	C180.260925,369.711487 176.846344,369.711487 174.072388,369.711487 
	C174.072388,364.410583 174.072388,359.198364 174.034424,353.175171 
	C173.975571,351.889404 173.954681,351.414612 173.933792,350.939850 
z"/>
<path fill="#224266" opacity="1.000000" stroke="none" 
	d="
M69.045181,336.077240 
	C69.045181,347.263794 69.045181,358.450348 69.045181,369.801025 
	C66.399551,369.801025 63.455593,369.801025 60.006760,369.801025 
	C60.006760,358.507172 60.006760,347.336792 60.009056,335.468811 
	C60.025345,334.593567 60.039345,334.415894 60.053341,334.238190 
	C62.721508,334.203888 65.389671,334.169586 68.487518,334.494568 
	C68.959862,335.261627 69.002525,335.669434 69.045181,336.077240 
z"/>
<path fill="#254367" opacity="1.000000" stroke="none" 
	d="
M160.913940,352.900055 
	C160.913940,358.449036 160.913940,363.998047 160.913940,369.746094 
	C158.043762,369.746094 154.814774,369.746094 151.620438,369.746094 
	C151.620438,357.883331 151.620438,346.209656 151.620438,334.333191 
	C154.484146,334.333191 157.770798,334.333191 160.404388,334.333191 
	C160.404388,339.660309 160.404388,345.015747 160.635101,351.034912 
	C160.881851,352.099091 160.897888,352.499573 160.913940,352.900055 
z"/>
<path fill="#264569" opacity="1.000000" stroke="none" 
	d="
M200.277893,347.572357 
	C201.747620,343.126556 203.217361,338.680786 204.687088,334.234985 
	C205.101440,334.218445 205.515793,334.201904 205.930130,334.185394 
	C210.870224,345.942810 215.810303,357.700256 220.862961,369.725586 
	C217.091522,369.725586 213.503189,369.725586 210.261871,369.725586 
	C209.767670,367.135345 209.577362,364.462799 208.721481,362.023834 
	C207.241318,357.805939 205.430695,353.695221 203.569443,349.626099 
	C203.114548,348.631592 201.926285,347.972534 200.679962,347.421936 
	C200.284683,347.684631 200.277893,347.572357 200.277893,347.572357 
z"/>
<path fill="#254367" opacity="1.000000" stroke="none" 
	d="
M348.209045,355.945221 
	C348.209473,360.838287 348.209473,365.242126 348.209473,369.810059 
	C345.865326,369.810059 342.568848,369.810059 339.488495,369.810059 
	C339.488495,357.974304 339.488495,346.232635 339.488495,334.301300 
	C342.358002,334.301300 345.790619,334.301300 348.208649,334.301300 
	C348.208649,341.364716 348.208649,348.410339 348.209045,355.945221 
z"/>
<path fill="#224266" opacity="1.000000" stroke="none" 
	d="
M308.148926,353.122070 
	C308.148956,358.538788 308.148956,363.955505 308.148956,369.655884 
	C305.628540,369.655884 302.253967,369.655884 299.406738,369.655884 
	C299.406738,357.943756 299.406738,346.300201 299.406738,334.387756 
	C302.174805,334.387756 305.541077,334.387756 308.023621,334.387756 
	C308.023621,339.567841 308.023621,344.768738 308.068848,350.797729 
	C308.125671,352.124603 308.137299,352.623352 308.148926,353.122070 
z"/>
<path fill="#224266" opacity="1.000000" stroke="none" 
	d="
M321.850311,350.877289 
	C321.909943,348.062286 322.089386,345.243225 321.994873,342.433411 
	C321.903931,339.728180 321.529694,337.032471 321.270416,334.230225 
	C324.312378,334.230225 327.609161,334.230225 330.618408,334.230225 
	C330.618408,346.016846 330.618408,357.731354 330.618408,369.686279 
	C327.867554,369.686279 324.502838,369.686279 321.991516,369.686279 
	C321.991516,364.418549 321.991516,359.224365 321.926086,353.202515 
	C321.857178,351.875671 321.853760,351.376495 321.850311,350.877289 
z"/>
<path fill="#28466A" opacity="1.000000" stroke="none" 
	d="
M374.727081,363.786133 
	C373.722900,366.042297 372.864838,367.953583 371.680328,370.591949 
	C366.415405,358.001770 361.472321,346.181213 356.468872,334.216248 
	C360.211487,334.216248 363.836273,334.216248 367.473999,334.216248 
	C366.752960,339.547821 373.383911,356.044678 377.012878,357.496277 
	C376.302856,359.469025 375.588013,361.455139 374.727081,363.786133 
z"/>
<path fill="#213F62" opacity="1.000000" stroke="none" 
	d="
M394.043182,334.287506 
	C396.721985,334.234711 399.400757,334.181885 402.524048,334.426086 
	C402.968567,334.723114 403.083557,335.168274 403.083557,335.168274 
	C403.005615,346.161377 402.927673,357.154480 402.896973,368.750122 
	C402.944275,369.352692 402.965393,369.750977 402.965393,369.750977 
	C400.283264,369.807373 397.601135,369.863708 394.481812,369.542938 
	C394.022430,368.761688 394.000275,368.357574 393.978088,367.953461 
	C393.977356,357.656738 393.976624,347.360016 393.991638,336.296051 
	C394.019287,335.115051 394.031250,334.701263 394.043182,334.287506 
z"/>
<path fill="#264569" opacity="1.000000" stroke="none" 
	d="
M432.158295,336.170044 
	C429.749054,340.825836 432.261383,343.660980 435.856750,346.050201 
	C439.159607,348.245087 442.623230,350.218109 445.793793,352.586426 
	C449.231995,355.154663 450.051819,358.897003 448.905396,362.859100 
	C447.793579,366.701447 444.804718,368.518494 440.386841,369.373871 
	C445.412476,365.127686 445.378662,362.399628 440.504517,358.920654 
	C437.279724,356.618958 433.611603,354.907227 430.523468,352.451599 
	C424.110779,347.352325 424.352234,340.246552 431.309937,335.637817 
	C431.924316,335.900726 432.041321,336.035400 432.158295,336.170044 
z"/>
<path fill="#264569" opacity="1.000000" stroke="none" 
	d="
M127.157837,336.126068 
	C124.432076,340.798553 127.222511,343.589355 130.678833,345.975586 
	C133.800232,348.130554 137.295303,349.781708 140.257401,352.121185 
	C144.662338,355.600220 145.615158,361.452545 142.566528,365.276398 
	C141.476273,366.643860 139.693420,367.459198 137.771805,368.192352 
	C140.450989,364.375732 139.251282,361.554535 136.126434,359.347534 
	C132.629089,356.877472 128.716766,354.959229 125.381554,352.302979 
	C119.001450,347.221710 119.355247,340.096375 126.371727,335.573792 
	C126.941811,335.856567 127.049828,335.991333 127.157837,336.126068 
z"/>
<path fill="#2E4C6E" opacity="1.000000" stroke="none" 
	d="
M280.879211,335.642273 
	C278.851685,335.173950 277.145660,334.928741 275.439667,334.683533 
	C275.505157,334.285461 275.570648,333.887421 275.636169,333.489349 
	C280.693054,334.212097 285.749969,334.934845 291.131134,335.703918 
	C290.393433,339.251770 289.843048,341.898834 289.259338,344.706024 
	C286.398346,341.567383 283.799530,338.716400 280.879211,335.642273 
z"/>
<path fill="#3A5677" opacity="1.000000" stroke="none" 
	d="
M433.025055,335.112488 
	C437.560577,335.290985 442.164429,335.114838 446.570892,335.963440 
	C447.398407,336.122803 447.437775,340.374512 447.264465,343.034821 
	C443.740753,338.254456 440.893555,332.962708 433.332001,335.463623 
	C432.958649,335.425903 433.025055,335.112488 433.025055,335.112488 
z"/>
<path fill="#3A5677" opacity="1.000000" stroke="none" 
	d="
M126.729866,335.484558 
	C129.181946,334.815155 131.732010,334.058167 134.295044,334.011353 
	C142.219055,333.866608 143.509842,335.589752 141.638901,343.171783 
	C136.388626,334.687958 134.462265,333.673889 127.541000,336.039032 
	C127.049828,335.991333 126.941811,335.856567 126.729866,335.484558 
z"/>
<path fill="#3A5677" opacity="1.000000" stroke="none" 
	d="
M403.424408,369.852539 
	C402.965393,369.750977 402.944275,369.352692 402.981110,369.156677 
	C409.648651,369.994507 414.858734,367.735626 419.292419,362.312866 
	C418.870880,364.769989 418.449310,367.227112 417.981476,369.954102 
	C413.072754,369.954102 408.478088,369.954102 403.424408,369.852539 
z"/>
<path fill="#3A5677" opacity="1.000000" stroke="none" 
	d="
M403.487732,335.108154 
	C403.083557,335.168274 402.968567,334.723114 402.966187,334.493256 
	C407.415436,334.263397 411.867065,334.263397 416.741760,334.263397 
	C416.890808,336.932922 417.024414,339.325958 417.243439,343.248688 
	C413.571014,337.274933 409.680267,334.354797 403.487732,335.108154 
z"/>
<path fill="#2C4A6D" opacity="1.000000" stroke="none" 
	d="
M409.891296,353.967651 
	C408.772858,353.288483 407.940735,352.832611 406.976257,352.304199 
	C409.157562,350.431915 411.284546,348.606232 413.679504,346.550537 
	C413.679504,350.130646 413.679504,353.674774 413.679504,357.968781 
	C412.288361,356.467957 411.233002,355.329407 409.891296,353.967651 
z"/>
<path fill="#2E4C6E" opacity="1.000000" stroke="none" 
	d="
M379.310852,334.593140 
	C381.923340,334.264435 384.531555,334.264435 387.417023,334.264435 
	C385.764435,337.302185 384.209656,340.160187 382.792206,342.765778 
	C381.674408,340.250336 380.490509,337.586090 379.310852,334.593140 
z"/>
<path fill="#2E4C6E" opacity="1.000000" stroke="none" 
	d="
M194.714874,361.651062 
	C195.586288,364.359711 196.280594,366.998932 197.006378,369.757782 
	C195.119675,369.757782 192.764084,369.757782 190.000793,369.757782 
	C191.576004,366.919067 193.056870,364.250336 194.714874,361.651062 
z"/>
<path fill="#3A5677" opacity="1.000000" stroke="none" 
	d="
M111.402496,341.776978 
	C110.080627,339.265564 108.758751,336.754120 107.449417,334.266541 
	C109.425003,334.266541 111.838173,334.266541 114.419563,334.266541 
	C113.912697,336.560577 113.409508,338.837891 112.635681,341.500488 
	C112.052666,341.774445 111.731819,341.738190 111.402496,341.776978 
z"/>
<path fill="#2E4C6E" opacity="1.000000" stroke="none" 
	d="
M120.952118,366.611237 
	C120.941994,364.422577 120.941994,362.644470 120.941994,360.821228 
	C123.562271,363.870972 126.022797,366.734772 128.483322,369.598572 
	C128.418747,369.852173 128.354187,370.105743 128.289612,370.359344 
	C125.847160,369.246826 123.404701,368.134308 120.952118,366.611237 
z"/>
<path fill="#909DB5" opacity="1.000000" stroke="none" 
	d="
M111.279037,342.246216 
	C111.731819,341.738190 112.052666,341.774445 112.608307,341.893494 
	C112.851593,347.509338 112.851593,353.117432 112.851593,358.725555 
	C112.286255,358.714386 111.720917,358.703247 111.155579,358.692108 
	C111.155579,353.366577 111.155579,348.041016 111.279037,342.246216 
z"/>
<path fill="#2E4C6E" opacity="1.000000" stroke="none" 
	d="
M428.081116,363.582489 
	C430.070557,365.758545 431.819519,367.632782 433.498077,369.431610 
	C427.425110,369.335815 425.186371,367.786285 426.103729,364.105713 
	C426.202118,363.710907 427.239014,363.550049 428.081116,363.582489 
z"/>
<path fill="#909DB5" opacity="1.000000" stroke="none" 
	d="
M321.397583,350.913818 
	C321.853760,351.376495 321.857178,351.875671 321.855591,352.749268 
	C317.584778,353.093872 313.319000,353.064117 308.601074,353.078186 
	C308.137299,352.623352 308.125671,352.124603 308.131409,351.252014 
	C312.414124,350.902222 316.679474,350.926270 321.397583,350.913818 
z"/>
<path fill="#909DB5" opacity="1.000000" stroke="none" 
	d="
M161.380981,352.935486 
	C160.897888,352.499573 160.881851,352.099091 160.889679,351.398743 
	C164.948868,351.080994 168.984192,351.063110 173.476654,350.992554 
	C173.954681,351.414612 173.975571,351.889404 173.956879,352.718994 
	C169.894196,353.039520 165.871109,353.005188 161.380981,352.935486 
z"/>
<path fill="#4D6684" opacity="1.000000" stroke="none" 
	d="
M59.606323,334.135193 
	C60.039345,334.415894 60.025345,334.593567 59.918617,335.021973 
	C56.544304,336.024261 53.262726,336.775787 49.850323,337.557251 
	C49.875217,337.296112 50.012936,335.851318 50.186337,334.032166 
	C53.288857,334.032166 56.224079,334.032166 59.606323,334.135193 
z"/>
<path fill="#4D6684" opacity="1.000000" stroke="none" 
	d="
M69.356110,335.855652 
	C69.002525,335.669434 68.959862,335.261627 68.929459,334.546021 
	C71.896111,334.238251 74.850525,334.238251 77.804932,334.238251 
	C77.803917,334.703522 77.802902,335.168823 77.801888,335.634094 
	C75.090263,335.634094 72.378647,335.634094 69.356110,335.855652 
z"/>
<path fill="#F7F8FA" opacity="1.000000" stroke="none" 
	d="
M197.556549,355.651917 
	C197.736084,356.877441 197.680862,357.874756 197.625641,358.872070 
	C196.891785,358.665649 196.157913,358.459229 195.424042,358.252808 
	C196.056625,357.309753 196.689224,356.366730 197.556549,355.651917 
z"/>
<path fill="#F7F8FA" opacity="1.000000" stroke="none" 
	d="
M169.108948,396.254181 
	C169.742767,397.227631 170.030304,398.294861 170.317841,399.362122 
	C169.610382,399.386658 168.902924,399.411224 168.195465,399.435791 
	C168.384537,398.406525 168.573608,397.377258 169.108948,396.254181 
z"/>
<path fill="#F7F8FA" opacity="1.000000" stroke="none" 
	d="
M197.950195,353.620453 
	C197.656235,353.256836 197.616928,352.894257 197.577621,352.531677 
	C197.835953,352.533447 198.094269,352.535187 198.352600,352.536987 
	C198.303360,352.898499 198.254105,353.260010 197.950195,353.620453 
z"/>
<path fill="#3A5677" opacity="1.000000" stroke="none" 
	d="
M393.739838,368.116089 
	C394.000275,368.357574 394.022430,368.761688 394.040314,369.469513 
	C393.857880,369.275055 393.679718,368.776917 393.739838,368.116089 
z"/>
<path fill="#F7F8FA" opacity="1.000000" stroke="none" 
	d="
M164.915085,393.936035 
	C165.391174,393.814819 165.867279,393.693634 166.343369,393.572418 
	C166.078873,393.722961 165.814377,393.873474 165.272217,394.014526 
	C164.994553,394.005005 164.915085,393.936035 164.915085,393.936035 
z"/>
<path fill="#3A5677" opacity="1.000000" stroke="none" 
	d="
M393.745575,334.246460 
	C394.031250,334.701263 394.019287,335.115051 393.967224,335.836914 
	C393.767426,335.498505 393.607697,334.851929 393.745575,334.246460 
z"/>
<path fill="#F7F8FA" opacity="1.000000" stroke="none" 
	d="
M165.029266,394.044556 
	C164.924942,394.087585 164.785889,394.091034 164.780975,394.015259 
	C164.915085,393.936035 164.994553,394.005005 165.029266,394.044556 
z"/>
<path fill="#F7F8FA" opacity="1.000000" stroke="none" 
	d="
M200.340836,347.687714 
	C200.236191,347.915863 200.075394,348.140900 199.914612,348.365936 
	C199.911835,348.177643 199.909058,347.989349 200.092102,347.686707 
	C200.277893,347.572357 200.284683,347.684631 200.340836,347.687714 
z"/>
<path fill="#264569" opacity="1.000000" stroke="none" 
	d="
M432.765442,335.038788 
	C433.025055,335.112488 432.958649,335.425903 432.965393,335.585938 
	C432.972168,335.745972 432.622559,336.067993 432.390442,336.119019 
	C432.041321,336.035400 431.924316,335.900726 431.656250,335.543182 
	C431.838715,335.201904 432.172272,335.083496 432.765442,335.038788 
z"/>
<path fill="#FCFCFC" opacity="1.000000" stroke="none" 
	d="
M249.825806,95.331573 
	C274.562744,95.331573 299.299683,95.331573 324.561493,95.331573 
	C324.561493,121.035385 324.561493,146.433075 324.039429,172.299484 
	C299.000793,172.834503 274.484192,172.900772 249.985367,172.985291 
	C250.003128,173.003525 250.039551,173.039108 249.955551,172.573883 
	C249.856308,146.516296 249.841064,120.923935 249.825806,95.331573 
M275.154388,144.340500 
	C275.765076,141.660965 277.355804,140.673660 280.140442,140.951584 
	C282.414398,141.178543 284.742432,140.863632 287.739716,141.060715 
	C289.947083,145.002228 292.783478,148.790649 290.654175,153.799866 
	C295.207825,153.799866 299.583954,153.799866 304.118652,153.799866 
	C298.307343,139.979385 292.628387,126.473763 286.949432,112.968132 
	C286.517883,112.965988 286.086304,112.963844 285.654755,112.961700 
	C283.902679,117.535385 282.150604,122.109062 280.004303,127.231819 
	C277.723297,133.166092 275.442291,139.100357 272.822998,145.649597 
	C271.403381,148.365707 269.983734,151.081818 268.535736,153.852264 
	C271.651550,153.852264 274.519440,153.852264 276.582428,153.852264 
	C275.964752,150.819580 275.376434,147.931061 275.154388,144.340500 
z"/>
<path fill="#FCFCFC" opacity="1.000000" stroke="none" 
	d="
M249.829407,271.998322 
	C248.169342,271.389252 246.397919,270.981842 244.868027,270.137054 
	C237.309143,265.963013 229.931076,261.444336 222.248352,257.518738 
	C218.273987,255.487976 216.191650,253.236221 217.771530,248.683578 
	C218.025269,247.952377 217.807129,247.057419 217.807129,245.765411 
	C213.567169,245.825989 209.299698,244.367081 204.162155,247.682312 
	C198.859085,244.060287 192.040878,240.380447 186.442734,235.344360 
	C178.598862,228.288010 174.847687,218.869186 174.816956,208.178406 
	C174.783966,196.699615 174.810669,185.220642 175.361115,173.269348 
	C200.620453,172.877670 225.330002,172.958389 250.039551,173.039108 
	C250.039551,173.039108 250.003128,173.003525 249.916748,173.451981 
	C249.830032,206.599731 249.829727,239.299026 249.829407,271.998322 
M206.090546,241.850830 
	C205.401138,242.181213 204.711731,242.511612 202.852829,243.402496 
	C209.533218,243.402496 214.794098,243.402496 220.054993,243.402496 
	C220.075745,243.082108 220.096481,242.761703 220.117218,242.441315 
	C219.107239,242.222733 218.097244,242.004135 217.045303,241.230103 
	C217.047226,240.859207 217.049133,240.488327 217.699249,239.855682 
	C223.649139,236.242706 222.885727,229.552856 224.971130,223.613571 
	C225.043243,223.269379 225.115341,222.925171 225.874374,222.368927 
	C228.653168,220.076706 228.226730,218.327698 224.692474,218.232178 
	C216.396927,218.007996 208.090607,218.115082 199.790421,218.224167 
	C198.850540,218.236511 197.922073,219.119003 196.988312,219.598007 
	C197.598053,220.591675 198.207809,221.585358 198.947098,223.163055 
	C199.049515,223.548615 199.151917,223.934158 199.386612,225.009277 
	C199.921967,226.708633 200.485138,228.399826 200.987030,230.109009 
	C202.115723,233.952652 202.460083,238.257660 207.019821,240.639359 
	C206.983841,241.020569 206.947876,241.401764 206.090546,241.850830 
M216.360977,216.198044 
	C218.919586,213.346741 222.728439,210.869125 223.720581,207.549622 
	C224.963318,203.391815 224.882751,198.235153 223.585922,194.065552 
	C221.724167,188.079742 218.248291,182.595947 215.461472,176.897842 
	C214.979004,177.138321 214.496521,177.378799 214.014053,177.619278 
	C214.273972,179.080383 214.746613,180.540527 214.753265,182.002808 
	C214.772064,186.127411 214.955536,190.310593 214.301651,194.345505 
	C214.084290,195.686768 211.524155,196.648376 210.035065,197.783569 
	C209.329468,196.307983 208.335861,194.895035 207.997452,193.339569 
	C207.643173,191.711166 207.918274,189.945801 207.918274,187.077576 
	C202.638153,194.163147 197.857468,200.236740 199.481049,208.561203 
	C200.287979,212.698502 203.431702,215.084381 207.281647,216.048096 
	C206.873016,213.009308 206.493591,210.187805 206.063110,206.986511 
	C208.282257,208.753601 209.660583,209.851135 211.038895,210.948700 
	C212.398376,208.532242 213.757858,206.115768 215.163269,203.617676 
	C218.118927,207.091171 218.314819,211.309662 215.787216,216.130234 
	C215.830246,216.117737 215.873260,216.105255 215.916275,216.092758 
	C215.849564,215.982605 215.782852,215.872452 216.360977,216.198044 
z"/>
<path fill="#C9A33B" opacity="1.000000" stroke="none" 
	d="
M249.955551,172.573883 
	C225.330002,172.958389 200.620453,172.877670 175.441589,172.793152 
	C174.972275,147.092361 174.972275,121.395378 174.972275,95.144554 
	C199.876099,95.144554 224.412964,95.144554 249.387817,95.238068 
	C249.841064,120.923935 249.856308,146.516296 249.955551,172.573883 
M236.202332,133.253189 
	C235.827789,132.264420 235.453247,131.275650 234.934723,129.396576 
	C234.865829,129.103958 234.796921,128.811325 234.824295,127.725136 
	C235.272217,122.649536 235.920792,117.577751 236.017517,112.495476 
	C236.039841,111.322601 234.373810,109.376595 233.142120,109.040024 
	C224.550674,106.692352 218.020355,110.043190 212.367874,117.003563 
	C211.941772,116.996544 211.515671,116.989525 210.709320,116.421638 
	C206.044724,110.140350 200.074478,107.241249 192.092957,108.665329 
	C189.011246,109.215187 187.949066,110.427605 188.009247,113.554504 
	C188.185577,122.712929 188.047638,131.877090 188.079880,141.038849 
	C188.085999,142.775650 188.308167,144.511688 188.433075,146.282516 
	C190.678009,146.282516 192.316269,146.282516 193.967316,146.803482 
	C193.968491,147.151184 193.969650,147.498901 193.101410,148.010590 
	C186.709427,148.709290 186.196503,148.262695 186.151169,141.912354 
	C186.136917,139.916809 186.148758,137.921066 186.148758,135.925415 
	C186.148712,129.754303 186.148727,123.583183 186.148727,116.602325 
	C182.749802,119.927193 181.999207,148.617157 184.506378,154.115036 
	C185.996765,153.577225 187.511520,152.999344 189.046646,152.481903 
	C196.979416,149.808105 202.917145,151.273209 207.434769,156.999527 
	C210.594177,161.004211 213.792862,161.002960 216.887039,156.991440 
	C220.460495,152.358536 225.084000,150.378357 230.880920,151.599167 
	C234.053467,152.267273 237.187256,153.119461 240.981476,154.045578 
	C240.981476,142.212769 241.024826,130.946320 240.897049,119.681824 
	C240.887100,118.805801 239.678345,117.943367 239.026779,117.074623 
	C238.631241,117.237923 238.235718,117.401215 237.840179,117.564514 
	C237.840179,123.032959 237.840179,128.501404 237.319122,133.980209 
	C236.971558,133.974869 236.623978,133.969543 236.202332,133.253189 
z"/>
<path fill="#C7A138" opacity="1.000000" stroke="none" 
	d="
M250.206055,272.057312 
	C249.829727,239.299026 249.830032,206.599731 249.898987,173.433746 
	C274.484192,172.900772 299.000793,172.834503 323.936523,172.736664 
	C324.421967,188.451477 326.686554,204.319778 322.525665,219.852127 
	C320.354523,227.956818 314.794281,234.923950 308.313843,238.859573 
	C308.313843,228.971863 308.313843,219.313232 308.313843,209.404175 
	C309.836212,209.220444 311.311584,209.161819 312.731140,208.849594 
	C317.821350,207.730026 322.084167,202.181076 321.845093,197.101807 
	C321.577026,191.406433 317.189514,186.127136 311.569366,186.025833 
	C296.086792,185.746704 280.593658,185.770523 265.109711,186.005386 
	C259.575775,186.089325 255.314651,190.933624 254.898819,196.476212 
	C254.469925,202.192429 258.225952,207.502594 263.719543,208.793045 
	C265.161469,209.131760 266.677948,209.153137 268.576141,209.367126 
	C268.672150,210.819824 268.847839,212.258286 268.849823,213.696991 
	C268.870056,228.353912 268.747681,243.012436 268.949036,257.666626 
	C268.994598,260.983215 267.951447,262.878815 265.063080,264.322906 
	C260.162476,266.772980 255.402054,269.503571 250.206055,272.057312 
z"/>
<path fill="#F7F8FA" opacity="1.000000" stroke="none" 
	d="
M337.342285,215.584793 
	C333.460663,216.337280 331.154205,221.030731 332.678284,224.263992 
	C333.725616,226.485855 333.984131,229.079559 333.517365,231.813202 
	C333.034363,230.208450 332.551361,228.603714 331.699158,225.772430 
	C329.284393,228.853180 327.131989,231.045822 325.751495,233.647980 
	C325.239349,234.613327 326.876434,236.523697 326.945740,238.030121 
	C327.134827,242.142059 327.010803,246.268417 326.257233,250.401596 
	C326.048096,246.514114 325.838959,242.626633 325.629791,238.739136 
	C325.168457,238.507935 324.707123,238.276733 324.245789,238.045532 
	C322.033081,240.315048 319.768372,242.538284 317.663452,244.903702 
	C317.345459,245.261017 317.838745,246.280411 317.842896,246.994202 
	C317.865997,250.965698 317.853973,254.937424 317.853973,258.909058 
	C317.395172,258.884735 316.936340,258.860413 316.477539,258.836090 
	C316.672089,255.691910 316.866608,252.547714 317.093933,248.873856 
	C315.403870,249.545303 314.057068,249.794830 313.069916,250.528381 
	C310.534637,252.412354 306.814941,253.264572 308.587677,258.306763 
	C309.429443,260.700989 307.584808,264.039764 306.578766,267.075104 
	C306.041962,267.049469 305.883606,266.899384 305.725281,266.749268 
	C306.040741,264.312592 306.356201,261.875946 306.816284,258.322327 
	C304.029755,259.361389 301.850342,260.188263 299.660675,260.987000 
	C296.861786,262.008026 296.751709,263.875427 296.928497,266.660004 
	C297.085510,269.132660 295.549591,271.712860 294.760925,274.245575 
	C294.314606,274.112427 293.868286,273.979309 293.421936,273.846191 
	C294.012817,271.530273 294.603699,269.214386 295.363739,266.235352 
	C292.879089,266.618683 291.088135,266.680878 289.440918,267.199554 
	C287.000946,267.967865 284.476044,268.082062 284.715515,272.359375 
	C284.879852,275.293854 282.084625,278.394104 280.612335,281.420288 
	C280.225342,281.252441 279.838318,281.084595 279.451294,280.916748 
	C280.581635,278.123444 281.711975,275.330109 282.857544,272.499115 
	C272.693481,269.467865 261.304932,278.036713 262.975616,285.579224 
	C260.344757,283.181183 257.764587,280.829346 254.860992,278.182678 
	C265.492432,272.121368 276.098389,266.058502 286.720581,260.024323 
	C293.492798,256.177185 300.307220,252.404236 307.071075,248.542603 
	C323.328827,239.260712 331.486145,225.115479 331.751587,206.517242 
	C331.977295,190.708618 331.842468,174.894852 331.866608,159.083359 
	C331.868805,157.656403 331.866913,156.229462 331.866913,154.843857 
	C333.321472,156.621368 334.656860,158.253250 336.433258,160.424011 
	C335.149231,163.844696 335.552368,167.539688 340.851746,169.662354 
	C340.878510,170.115875 340.637115,170.343231 340.637115,170.343231 
	C337.037537,172.615555 337.551819,176.560135 341.797607,179.244446 
	C338.538300,182.981583 338.567627,187.363403 341.421936,189.671326 
	C340.156708,193.105637 338.955414,196.366379 338.096863,198.696762 
	C339.880127,200.963867 341.060364,202.464310 342.159790,204.438690 
	C342.079041,204.912628 341.764984,205.203186 341.765015,205.203171 
	C341.152832,204.479996 340.540680,203.756836 339.919281,203.022797 
	C335.516968,207.842438 335.228729,209.825745 337.963318,214.606995 
	C337.637177,215.315643 337.489716,215.450226 337.342285,215.584793 
z"/>
<path fill="#F9FAFB" opacity="1.000000" stroke="none" 
	d="
M173.717773,231.044373 
	C180.806534,243.689453 193.518280,249.212814 205.272736,255.941055 
	C218.192688,263.336426 231.128311,270.704437 244.403702,278.282227 
	C241.699280,280.423584 239.331741,282.298187 236.815765,284.290344 
	C235.802307,277.277069 227.472824,269.877991 216.591248,272.424133 
	C217.843262,275.835175 219.075714,279.192902 220.308167,282.550629 
	C219.905731,282.700287 219.503281,282.849915 219.100845,282.999573 
	C217.184097,278.545258 215.267349,274.090973 213.350601,269.636658 
	C213.759979,269.310486 214.169357,268.984314 214.578720,268.658142 
	C211.298065,267.803284 208.017410,266.948456 203.819351,265.854584 
	C204.723419,269.638184 205.421127,272.558167 206.118835,275.478149 
	C205.648224,275.600830 205.177597,275.723480 204.706985,275.846161 
	C203.903046,272.113647 203.314362,268.314606 202.191574,264.680603 
	C201.727921,263.179962 200.328079,261.722870 198.974365,260.807373 
	C197.408279,259.748260 195.423965,259.307617 193.091003,258.389893 
	C193.091003,261.553772 193.091003,264.060181 193.091003,266.566589 
	C192.797516,266.602173 192.504044,266.637787 192.210556,266.673370 
	C191.744354,264.325226 190.533310,261.834473 190.950409,259.655365 
	C192.246048,252.886581 187.651718,251.172348 182.479218,248.846222 
	C182.275269,251.694946 182.098511,254.163788 181.921753,256.632629 
	C179.528549,250.469955 184.985184,241.483490 174.094925,238.586533 
	C173.638580,240.805649 173.142639,243.217239 172.646698,245.628815 
	C172.198212,245.515945 171.749725,245.403061 171.301239,245.290176 
	C172.143707,242.043121 173.076202,238.815002 173.766449,235.535889 
	C173.942841,234.697906 173.352432,233.698532 173.123108,232.206299 
	C173.265823,231.380569 173.461121,231.182266 173.717773,231.044373 
z"/>
<path fill="#F7F8FA" opacity="1.000000" stroke="none" 
	d="
M173.630890,230.708954 
	C173.461121,231.182266 173.265823,231.380569 173.058228,231.837433 
	C171.320663,230.228073 169.656769,228.420578 167.549042,226.130966 
	C166.706787,228.805176 166.035553,230.936401 165.364319,233.067642 
	C164.926682,232.942688 164.489044,232.817734 164.051407,232.692795 
	C164.632385,230.545364 164.704941,228.050674 165.889923,226.315796 
	C169.405640,221.168564 165.650711,218.339005 162.777237,214.346451 
	C161.929733,216.199936 161.344360,217.480103 160.279190,218.800812 
	C159.655151,218.739792 159.510925,218.638229 159.366699,218.536667 
	C160.447693,216.368134 162.015030,214.294586 162.462692,212.002365 
	C162.852097,210.008514 162.304062,207.642899 161.555664,205.675354 
	C160.958679,204.105835 159.435944,202.888443 158.327713,201.512268 
	C161.850937,198.970428 161.375305,194.320358 157.109085,190.422150 
	C161.408585,187.479095 160.632614,183.974487 157.690155,180.255524 
	C157.205292,180.200867 156.890320,179.893082 156.890320,179.893082 
	C161.567886,175.682785 162.021271,173.755249 158.686569,170.244659 
	C158.218033,170.224655 157.923706,169.929810 157.923706,169.929810 
	C163.481720,166.038116 163.481720,166.038116 162.577393,160.133972 
	C164.113297,158.721176 165.542587,157.406433 167.271973,155.815659 
	C167.271973,172.202454 167.229828,188.426590 167.288528,204.650345 
	C167.321289,213.704391 168.919037,222.417099 173.630890,230.708954 
z"/>
<path fill="#FCFCFC" opacity="1.000000" stroke="none" 
	d="
M243.404694,283.175415 
	C251.662598,279.716583 258.037720,282.238922 260.458313,289.595978 
	C262.408295,295.522675 258.634216,301.711212 251.953064,303.542419 
	C247.452713,304.775909 242.254623,302.404572 239.796036,297.996399 
	C237.059540,293.089996 238.180878,288.093628 243.404694,283.175415 
z"/>
<path fill="#A18A41" opacity="1.000000" stroke="none" 
	d="
M283.307617,252.899139 
	C283.189514,235.770737 283.229401,219.007614 283.325409,202.244812 
	C283.327209,201.932495 283.995636,201.623978 285.177338,200.598068 
	C285.472809,202.699890 285.847687,204.142853 285.852051,205.586945 
	C285.895935,220.034668 285.947205,234.483383 285.773621,248.929138 
	C285.756165,250.383255 284.273865,251.819778 283.307617,252.899139 
z"/>
<path fill="#C7A138" opacity="1.000000" stroke="none" 
	d="
M293.151245,234.989594 
	C293.151337,239.840256 293.151337,244.193634 293.151337,248.547012 
	C292.629120,248.534866 292.106934,248.522736 291.584717,248.510590 
	C291.584717,232.937592 291.584717,217.364594 291.584717,201.791595 
	C292.106873,201.777695 292.628998,201.763794 293.151154,201.749878 
	C293.151154,212.664032 293.151154,223.578171 293.151245,234.989594 
z"/>
<path fill="#978543" opacity="1.000000" stroke="none" 
	d="
M300.028198,209.215408 
	C300.028168,221.288406 300.028168,232.889908 300.028168,244.491425 
	C299.532684,244.489304 299.037231,244.487167 298.541748,244.485046 
	C298.541748,230.583206 298.541748,216.681351 298.541748,202.779510 
	C298.841492,202.727768 299.141235,202.676025 299.440948,202.624298 
	C299.636719,204.664169 299.832489,206.704056 300.028198,209.215408 
z"/>
<path fill="#586054" opacity="1.000000" stroke="none" 
	d="
M305.006653,213.272598 
	C305.006683,222.945892 305.006683,232.152298 305.006683,241.358719 
	C304.564728,241.360916 304.122803,241.363113 303.680847,241.365311 
	C303.680847,230.467972 303.680847,219.570618 303.680847,208.673279 
	C303.981689,208.617050 304.282501,208.560837 304.583344,208.504608 
	C304.724426,209.938309 304.865540,211.372009 305.006653,213.272598 
z"/>
<path fill="#C9A33B" opacity="1.000000" stroke="none" 
	d="
M278.133301,249.854660 
	C278.133392,252.301239 278.133392,254.269516 278.133392,256.237793 
	C277.856659,256.233429 277.579956,256.229034 277.303223,256.224670 
	C277.303223,238.431198 277.303223,220.637711 277.303223,202.844238 
	C277.579895,202.840088 277.856567,202.835938 278.133240,202.831772 
	C278.133240,218.346634 278.133240,233.861496 278.133301,249.854660 
z"/>
<path fill="#6E6C4E" opacity="1.000000" stroke="none" 
	d="
M278.018738,188.012543 
	C289.697906,188.012558 300.880615,188.012558 312.063354,188.012558 
	C312.054443,188.424469 312.045532,188.836395 312.036621,189.248306 
	C296.727997,189.248306 281.419373,189.248306 266.110748,189.248306 
	C266.106049,188.836380 266.101379,188.424469 266.096680,188.012543 
	C269.905212,188.012543 273.713745,188.012543 278.018738,188.012543 
z"/>
<path fill="#978543" opacity="1.000000" stroke="none" 
	d="
M272.056396,220.030197 
	C272.056458,216.057785 272.056458,212.579010 272.056458,209.100250 
	C272.253021,209.100433 272.449554,209.100601 272.646118,209.100784 
	C272.646118,225.695709 272.646118,242.290649 272.646118,258.885590 
	C272.449524,258.889069 272.252930,258.892548 272.056335,258.896027 
	C272.056335,246.105301 272.056335,233.314575 272.056396,220.030197 
z"/>
<path fill="#6E6C4E" opacity="1.000000" stroke="none" 
	d="
M277.657867,194.631744 
	C278.545349,195.680328 279.092865,196.667801 279.961273,198.234085 
	C280.580627,196.722168 281.016907,195.657181 281.593933,194.248550 
	C282.084991,195.072113 282.871368,195.791550 282.765137,196.337265 
	C282.541931,197.484222 282.106689,199.107590 281.281586,199.480698 
	C280.375153,199.890564 278.330994,199.497070 277.865509,198.765015 
	C277.179901,197.686737 277.453094,195.998871 277.657867,194.631744 
z"/>
<path fill="#FFFFFF" opacity="1.000000" stroke="none" 
	d="
M189.952820,280.508911 
	C189.070786,280.954834 188.504944,281.135925 187.939087,281.317017 
	C187.735977,280.955475 187.532867,280.593964 187.329758,280.232452 
	C188.887375,279.329346 190.444977,278.426270 192.002594,277.523193 
	C192.212128,277.844696 192.421661,278.166229 192.631195,278.487732 
	C191.843796,279.073181 191.056381,279.658600 189.952820,280.508911 
z"/>
<path fill="#FFFFFF" opacity="1.000000" stroke="none" 
	d="
M310.316101,280.507507 
	C308.596191,279.902344 307.194153,279.070770 305.792114,278.239166 
	C305.935150,277.951843 306.078186,277.664490 306.221222,277.377136 
	C307.740570,277.968597 309.259888,278.560028 310.999390,279.458252 
	C311.024384,279.937012 310.829193,280.109070 310.316101,280.507507 
z"/>
<path fill="#FFFFFF" opacity="1.000000" stroke="none" 
	d="
M355.947388,182.971283 
	C354.920807,183.959351 353.641571,184.707062 352.362366,185.454758 
	C352.189148,185.201157 352.015930,184.947556 351.842743,184.693954 
	C352.734192,183.973846 353.625641,183.253723 354.835297,182.412277 
	C355.333893,182.437576 355.514313,182.584229 355.947388,182.971283 
z"/>
<path fill="#F7F8FA" opacity="1.000000" stroke="none" 
	d="
M342.234131,204.765259 
	C342.799683,205.401108 343.210144,206.184326 343.620636,206.967529 
	C343.411621,207.115799 343.202576,207.264053 342.993561,207.412323 
	C342.596924,206.868057 342.200317,206.323776 341.784363,205.491348 
	C341.764984,205.203186 342.079041,204.912628 342.234131,204.765259 
z"/>
<path fill="#F7F8FA" opacity="1.000000" stroke="none" 
	d="
M338.008942,214.982727 
	C338.574127,216.043594 338.914978,217.302795 339.255859,218.561996 
	C338.979126,218.640030 338.702393,218.718079 338.425659,218.796112 
	C338.141602,217.949051 337.857513,217.101974 337.457855,215.919846 
	C337.489716,215.450226 337.637177,215.315643 338.008942,214.982727 
z"/>
<path fill="#FFFFFF" opacity="1.000000" stroke="none" 
	d="
M281.899994,299.056396 
	C281.110413,298.345581 280.619476,297.314331 280.128571,296.283081 
	C280.357391,296.120636 280.586212,295.958191 280.815063,295.795746 
	C281.391785,296.304016 281.968506,296.812286 282.644653,297.685394 
	C282.562286,298.278778 282.380493,298.507355 281.899994,299.056396 
z"/>
<path fill="#FFFFFF" opacity="1.000000" stroke="none" 
	d="
M149.566940,158.564713 
	C150.306595,158.918793 150.799240,159.441330 151.262619,160.351105 
	C151.233353,160.738373 150.982010,161.020523 150.982010,161.020523 
	C150.353821,160.575211 149.725632,160.129898 148.986923,159.409378 
	C149.024261,159.000488 149.172104,158.866821 149.566940,158.564713 
z"/>
<path fill="#FFFFFF" opacity="1.000000" stroke="none" 
	d="
M294.254974,288.412048 
	C293.398224,288.156860 292.956940,287.965515 292.515625,287.774139 
	C292.663513,287.552185 292.811401,287.330231 292.959290,287.108246 
	C293.529663,287.564117 294.100067,288.019989 294.254974,288.412048 
z"/>
<path fill="#F7F8FA" opacity="1.000000" stroke="none" 
	d="
M306.429108,267.433624 
	C306.354218,268.389984 306.050568,269.112305 305.223053,271.080780 
	C305.223053,268.894470 305.223053,268.059998 305.474182,266.987427 
	C305.883606,266.899384 306.041962,267.049469 306.429108,267.433624 
z"/>
<path fill="#F7F8FA" opacity="1.000000" stroke="none" 
	d="
M160.001740,219.011810 
	C160.045898,220.079727 159.887680,220.977158 159.729477,221.874588 
	C159.513565,221.858246 159.297668,221.841904 159.081757,221.825546 
	C159.081757,220.947525 159.081757,220.069504 159.224228,218.864075 
	C159.510925,218.638229 159.655151,218.739792 160.001740,219.011810 
z"/>
<path fill="#FFFFFF" opacity="1.000000" stroke="none" 
	d="
M351.090149,212.093628 
	C350.341827,212.580185 349.369476,212.828003 348.397156,213.075821 
	C348.328888,212.843643 348.260590,212.611481 348.192322,212.379318 
	C348.748596,212.167831 349.304840,211.956360 350.134857,211.565674 
	C350.561096,211.542618 350.713623,211.698746 351.090149,212.093628 
z"/>
<path fill="#6E6C4E" opacity="1.000000" stroke="none" 
	d="
M276.334564,192.469498 
	C276.342041,192.179062 276.483917,192.018784 276.625793,191.858521 
	C276.573517,192.105560 276.521240,192.352615 276.334564,192.469498 
z"/>
<path fill="#FFFFFF" opacity="1.000000" stroke="none" 
	d="
M278.858093,294.803131 
	C279.247345,294.372955 279.774872,294.419281 280.302429,294.465607 
	C280.253632,294.873016 280.204865,295.280396 280.156128,295.687805 
	C279.769562,295.551758 279.382996,295.415680 278.858093,294.803131 
z"/>
<path fill="#FFFFFF" opacity="1.000000" stroke="none" 
	d="
M145.497513,184.631378 
	C144.876877,184.211227 144.256256,183.791092 143.635620,183.370956 
	C143.714249,183.162552 143.792862,182.954147 143.871490,182.745743 
	C144.499771,182.889343 145.128052,183.032944 145.783997,183.699341 
	C145.706970,184.358551 145.602249,184.494965 145.497513,184.631378 
z"/>
<path fill="#FFFFFF" opacity="1.000000" stroke="none" 
	d="
M339.436279,140.566010 
	C339.153107,141.146744 338.687805,141.477295 338.222504,141.807861 
	C338.243439,141.249969 338.264404,140.692078 338.562744,139.994949 
	C338.978149,140.009064 339.116150,140.162445 339.436279,140.566010 
z"/>
<path fill="#FFFFFF" opacity="1.000000" stroke="none" 
	d="
M351.540405,170.968140 
	C352.192383,170.801971 352.547272,170.908615 352.902161,171.015259 
	C352.815033,171.253906 352.673920,171.705963 352.648773,171.699600 
	C352.172089,171.579025 351.709137,171.404343 351.540405,170.968140 
z"/>
<path fill="#FFFFFF" opacity="1.000000" stroke="none" 
	d="
M352.947021,197.939026 
	C352.511902,198.351807 351.900208,198.568588 351.288513,198.785370 
	C351.485046,198.426712 351.681549,198.068054 352.140381,197.537109 
	C352.525299,197.490891 352.647919,197.616959 352.947021,197.939026 
z"/>
<path fill="#FFFFFF" opacity="1.000000" stroke="none" 
	d="
M219.623886,294.065186 
	C220.103989,293.484070 220.481613,293.351776 220.859222,293.219513 
	C220.906281,293.572357 221.056107,294.205841 220.983658,294.232361 
	C220.523560,294.400879 220.014374,294.435333 219.623886,294.065186 
z"/>
<path fill="#FFFFFF" opacity="1.000000" stroke="none" 
	d="
M204.861343,288.444946 
	C204.504745,288.060547 204.551804,287.574707 204.667633,287.105865 
	C204.676147,287.071411 205.180954,287.159576 205.455032,287.190735 
	C205.397339,287.576416 205.339645,287.962067 204.861343,288.444946 
z"/>
<path fill="#FFFFFF" opacity="1.000000" stroke="none" 
	d="
M147.010559,171.000824 
	C147.498032,171.094971 147.810150,171.373428 148.122269,171.651855 
	C147.755432,171.764175 147.388611,171.876495 146.762772,171.779953 
	C146.614243,171.442444 146.724716,171.313782 147.010559,171.000824 
z"/>
<path fill="#6E6C4E" opacity="1.000000" stroke="none" 
	d="
M261.635986,190.439240 
	C261.723877,190.543365 261.412415,190.594681 261.412415,190.594681 
	C261.412415,190.594681 261.548126,190.335114 261.635986,190.439240 
z"/>
<path fill="#6E6C4E" opacity="1.000000" stroke="none" 
	d="
M263.624451,189.617050 
	C263.405731,189.631027 263.327820,189.547958 263.249908,189.464874 
	C263.421692,189.483246 263.593445,189.501617 263.624451,189.617050 
z"/>
<path fill="#FFFFFF" opacity="1.000000" stroke="none" 
	d="
M349.969421,159.001160 
	C349.878174,159.459213 349.577209,159.735352 349.276276,160.011475 
	C349.148438,159.674103 349.020569,159.336700 349.101440,158.746338 
	C349.460052,158.601990 349.609894,158.710602 349.969421,159.001160 
z"/>
<path fill="#FFFFFF" opacity="1.000000" stroke="none" 
	d="
M151.367554,160.605377 
	C151.631439,160.865234 151.761108,161.258057 151.890793,161.650879 
	C151.634933,161.633408 151.379059,161.615936 151.052612,161.309479 
	C150.982010,161.020523 151.233353,160.738373 151.367554,160.605377 
z"/>
<path fill="#F7F8FA" opacity="1.000000" stroke="none" 
	d="
M158.355133,170.381485 
	C158.084839,170.653885 157.677444,170.769455 157.270065,170.885025 
	C157.293411,170.622513 157.316757,170.359985 157.631897,170.013641 
	C157.923706,169.929810 158.218033,170.224655 158.355133,170.381485 
z"/>
<path fill="#F7F8FA" opacity="1.000000" stroke="none" 
	d="
M340.998413,170.001328 
	C341.317383,170.176956 341.516479,170.467148 341.715576,170.757324 
	C341.463043,170.774612 341.210510,170.791885 340.797546,170.576202 
	C340.637115,170.343231 340.878510,170.115875 340.998413,170.001328 
z"/>
<path fill="#FFFFFF" opacity="1.000000" stroke="none" 
	d="
M145.986481,184.032440 
	C146.465637,184.102005 146.769989,184.361298 147.074341,184.620575 
	C146.723663,184.743195 146.372971,184.865814 145.759903,184.809906 
	C145.602249,184.494965 145.706970,184.358551 145.986481,184.032440 
z"/>
<path fill="#F7F8FA" opacity="1.000000" stroke="none" 
	d="
M155.888550,180.893524 
	C156.049652,180.597916 156.210754,180.302307 156.631088,179.949890 
	C156.890320,179.893082 157.205292,180.200867 157.357742,180.361298 
	C157.336533,180.806488 157.106262,181.033951 156.468246,181.158768 
	C156.117096,181.113403 155.888550,180.893524 155.888550,180.893524 
z"/>
<path fill="#F7F8FA" opacity="1.000000" stroke="none" 
	d="
M156.231750,181.222931 
	C156.000122,181.470306 155.653854,181.608139 155.307571,181.745972 
	C155.322189,181.509705 155.336792,181.273438 155.619965,180.965347 
	C155.888550,180.893524 156.117096,181.113403 156.231750,181.222931 
z"/>
<path fill="#FFFFFF" opacity="1.000000" stroke="none" 
	d="
M146.950058,198.075073 
	C147.349030,198.167618 147.583145,198.444901 147.817261,198.722198 
	C147.547546,198.794952 147.277832,198.867691 146.756653,198.804352 
	C146.505203,198.668259 146.785202,198.259811 146.950058,198.075073 
z"/>
<path fill="#6E6C4E" opacity="1.000000" stroke="none" 
	d="
M280.039825,191.951996 
	C280.234833,192.106949 280.429840,192.261902 280.624847,192.416855 
	C280.434387,192.421402 280.243927,192.425964 280.024200,192.216156 
	C279.994934,192.001801 280.039825,191.951996 280.039825,191.951996 
z"/>
<path fill="#6E6C4E" opacity="1.000000" stroke="none" 
	d="
M279.970032,192.024277 
	C279.819061,191.865372 279.692993,191.684006 279.566895,191.502625 
	C279.680908,191.546570 279.794891,191.590515 279.974365,191.793228 
	C280.039825,191.951996 279.994934,192.001801 279.970032,192.024277 
z"/>
<path fill="#FCFCFC" opacity="1.000000" stroke="none" 
	d="
M243.978760,336.931702 
	C247.861877,341.153992 248.094772,345.900146 245.553909,350.049591 
	C244.129608,352.375580 240.633072,353.432648 237.080643,355.690308 
	C237.080643,347.618378 237.080643,341.441742 237.080643,334.392120 
	C239.739929,335.328888 241.695099,336.017609 243.978760,336.931702 
z"/>
<path fill="#264569" opacity="1.000000" stroke="none" 
	d="
M280.398529,126.682739 
	C282.150604,122.109062 283.902679,117.535385 285.654755,112.961700 
	C286.086304,112.963844 286.517883,112.965988 286.949432,112.968132 
	C292.628387,126.473763 298.307343,139.979385 304.118652,153.799866 
	C299.583954,153.799866 295.207825,153.799866 290.654175,153.799866 
	C292.783478,148.790649 289.947083,145.002228 287.398071,140.717743 
	C287.056427,140.374771 286.983856,139.966858 287.058075,139.586014 
	C285.210114,135.334961 283.287933,131.464737 281.158325,127.330093 
	C280.766785,126.938019 280.582642,126.810379 280.398529,126.682739 
z"/>
<path fill="#4D6684" opacity="1.000000" stroke="none" 
	d="
M286.983856,139.966858 
	C286.983856,139.966858 287.056427,140.374771 287.051453,140.581879 
	C284.742432,140.863632 282.414398,141.178543 280.140442,140.951584 
	C277.355804,140.673660 275.765076,141.660965 274.700104,144.697174 
	C273.884308,145.047440 273.522797,145.041031 273.161285,145.034637 
	C275.442291,139.100357 277.723297,133.166092 280.201416,126.957275 
	C280.582642,126.810379 280.766785,126.938019 281.104858,127.681961 
	C279.905151,132.026962 278.551514,135.755646 277.022705,139.966858 
	C280.799347,139.966858 283.891602,139.966858 286.983856,139.966858 
z"/>
<path fill="#2A486C" opacity="1.000000" stroke="none" 
	d="
M272.992126,145.342117 
	C273.522797,145.041031 273.884308,145.047440 274.516968,145.048187 
	C275.376434,147.931061 275.964752,150.819580 276.582428,153.852264 
	C274.519440,153.852264 271.651550,153.852264 268.535736,153.852264 
	C269.983734,151.081818 271.403381,148.365707 272.992126,145.342117 
z"/>
<path fill="#28466A" opacity="1.000000" stroke="none" 
	d="
M215.807632,215.833588 
	C218.314819,211.309662 218.118927,207.091171 215.163269,203.617676 
	C213.757858,206.115768 212.398376,208.532242 211.038895,210.948700 
	C209.660583,209.851135 208.282257,208.753601 206.063110,206.986511 
	C206.493591,210.187805 206.873016,213.009308 207.281647,216.048096 
	C203.431702,215.084381 200.287979,212.698502 199.481049,208.561203 
	C197.857468,200.236740 202.638153,194.163147 207.918274,187.077576 
	C207.918274,189.945801 207.643173,191.711166 207.997452,193.339569 
	C208.335861,194.895035 209.329468,196.307983 210.035065,197.783569 
	C211.524155,196.648376 214.084290,195.686768 214.301651,194.345505 
	C214.955536,190.310593 214.772064,186.127411 214.753265,182.002808 
	C214.746613,180.540527 214.273972,179.080383 214.014053,177.619278 
	C214.496521,177.378799 214.979004,177.138321 215.461472,176.897842 
	C218.248291,182.595947 221.724167,188.079742 223.585922,194.065552 
	C224.882751,198.235153 224.963318,203.391815 223.720581,207.549622 
	C222.728439,210.869125 218.919586,213.346741 216.062073,215.997162 
	C215.763168,215.796295 215.807632,215.833588 215.807632,215.833588 
z"/>
<path fill="#224266" opacity="1.000000" stroke="none" 
	d="
M206.969376,240.067139 
	C202.460083,238.257660 202.115723,233.952652 200.987030,230.109009 
	C200.485138,228.399826 199.921967,226.708633 199.769196,224.608017 
	C208.402283,224.183701 216.652786,224.160645 224.903290,224.137589 
	C222.885727,229.552856 223.649139,236.242706 216.917938,239.951324 
	C213.080887,240.053711 210.025131,240.060425 206.969376,240.067139 
z"/>
<path fill="#2E4C6E" opacity="1.000000" stroke="none" 
	d="
M198.817551,222.579025 
	C198.207809,221.585358 197.598053,220.591675 196.988312,219.598007 
	C197.922073,219.119003 198.850540,218.236511 199.790421,218.224167 
	C208.090607,218.115082 216.396927,218.007996 224.692474,218.232178 
	C228.226730,218.327698 228.653168,220.076706 225.071381,222.320755 
	C215.784790,222.374725 207.301163,222.476868 198.817551,222.579025 
z"/>
<path fill="#BBC4D0" opacity="1.000000" stroke="none" 
	d="
M198.882324,222.871033 
	C207.301163,222.476868 215.784790,222.374725 224.727921,222.426788 
	C225.115341,222.925171 225.043243,223.269379 224.937210,223.875580 
	C216.652786,224.160645 208.402283,224.183701 199.703049,224.263229 
	C199.151917,223.934158 199.049515,223.548615 198.882324,222.871033 
z"/>
<path fill="#2E4C6E" opacity="1.000000" stroke="none" 
	d="
M217.087250,241.785553 
	C218.097244,242.004135 219.107239,242.222733 220.117218,242.441315 
	C220.096481,242.761703 220.075745,243.082108 220.054993,243.402496 
	C214.794098,243.402496 209.533218,243.402496 202.852829,243.402496 
	C204.711731,242.511612 205.401138,242.181213 206.954865,241.915375 
	C210.908539,241.915131 213.997894,241.850342 217.087250,241.785553 
z"/>
<path fill="#BBC4D0" opacity="1.000000" stroke="none" 
	d="
M217.066284,241.507828 
	C213.997894,241.850342 210.908539,241.915131 207.365540,241.881439 
	C206.947876,241.401764 206.983841,241.020569 206.994598,240.353241 
	C210.025131,240.060425 213.080887,240.053711 216.593842,240.082214 
	C217.049133,240.488327 217.047226,240.859207 217.066284,241.507828 
z"/>
<path fill="#28466A" opacity="1.000000" stroke="none" 
	d="
M215.739655,215.779297 
	C215.782852,215.872452 215.849564,215.982605 215.916275,216.092773 
	C215.873260,216.105255 215.830246,216.117737 215.797424,215.981903 
	C215.807632,215.833588 215.763168,215.796295 215.739655,215.779297 
z"/>
<path fill="#213F62" opacity="1.000000" stroke="none" 
	d="
M193.954529,146.282516 
	C192.316269,146.282516 190.678009,146.282516 188.433075,146.282516 
	C188.308167,144.511688 188.085999,142.775650 188.079880,141.038849 
	C188.047638,131.877090 188.185577,122.712929 188.009247,113.554504 
	C187.949066,110.427605 189.011246,109.215187 192.092957,108.665329 
	C200.074478,107.241249 206.044724,110.140350 210.868362,117.171249 
	C211.027405,129.111404 211.027405,140.301941 211.027405,152.384949 
	C205.410767,148.156982 200.388123,144.990784 193.954529,146.282516 
z"/>
<path fill="#213F62" opacity="1.000000" stroke="none" 
	d="
M213.007355,117.002800 
	C218.020355,110.043190 224.550674,106.692352 233.142120,109.040024 
	C234.373810,109.376595 236.039841,111.322601 236.017517,112.495476 
	C235.920792,117.577751 235.272217,122.649536 234.509857,128.356171 
	C231.353470,131.064102 228.511490,133.141006 225.094559,135.638092 
	C227.787796,145.085922 219.549805,147.855453 213.007355,152.573212 
	C213.007355,140.295883 213.007355,128.649338 213.007355,117.002800 
z"/>
<path fill="#2B455F" opacity="1.000000" stroke="none" 
	d="
M237.840179,133.969849 
	C237.840179,128.501404 237.840179,123.032959 237.840179,117.564514 
	C238.235718,117.401215 238.631241,117.237923 239.026779,117.074623 
	C239.678345,117.943367 240.887100,118.805801 240.897049,119.681824 
	C241.024826,130.946320 240.981476,142.212769 240.981476,154.045578 
	C237.187256,153.119461 234.053467,152.267273 230.880920,151.599167 
	C225.084000,150.378357 220.460495,152.358536 216.887039,156.991440 
	C213.792862,161.002960 210.594177,161.004211 207.434769,156.999527 
	C202.917145,151.273209 196.979416,149.808105 189.046646,152.481903 
	C187.511520,152.999344 185.996765,153.577225 184.506378,154.115036 
	C181.999207,148.617157 182.749802,119.927193 186.148727,116.602325 
	C186.148727,123.583183 186.148712,129.754303 186.148758,135.925415 
	C186.148758,137.921066 186.136917,139.916809 186.151169,141.912354 
	C186.196503,148.262695 186.709427,148.709290 193.957886,147.982269 
	C202.319733,147.637848 207.683365,151.390366 211.052383,156.234467 
	C217.456055,152.623474 223.385483,149.242447 229.351654,145.927551 
	C234.107086,143.285355 237.590668,139.787888 237.840179,133.969849 
z"/>
<path fill="#B3953D" opacity="1.000000" stroke="none" 
	d="
M237.579651,133.975037 
	C237.590668,139.787888 234.107086,143.285355 229.351654,145.927551 
	C223.385483,149.242447 217.456055,152.623474 211.052383,156.234467 
	C207.683365,151.390366 202.319733,147.637848 194.392593,147.900269 
	C193.969650,147.498901 193.968491,147.151184 193.960922,146.542999 
	C200.388123,144.990784 205.410767,148.156982 211.027405,152.384949 
	C211.027405,140.301941 211.027405,129.111404 211.058487,117.451691 
	C211.515671,116.989525 211.941772,116.996544 212.687622,117.003181 
	C213.007355,128.649338 213.007355,140.295883 213.007355,152.573212 
	C219.549805,147.855453 227.787796,145.085922 225.094559,135.638092 
	C228.511490,133.141006 231.353470,131.064102 234.461731,128.752960 
	C234.796921,128.811325 234.865829,129.103958 234.941452,130.166931 
	C231.290543,134.941605 224.272186,136.888535 226.936813,144.704254 
	C232.002518,143.010941 235.164413,139.422729 236.276413,133.964203 
	C236.623978,133.969543 236.971558,133.974869 237.579651,133.975037 
z"/>
<path fill="#2B455F" opacity="1.000000" stroke="none" 
	d="
M236.239380,133.608704 
	C235.164413,139.422729 232.002518,143.010941 226.936813,144.704254 
	C224.272186,136.888535 231.290543,134.941605 235.013428,130.612091 
	C235.453247,131.275650 235.827789,132.264420 236.239380,133.608704 
z"/>
<path fill="#EEF0F3" opacity="1.000000" stroke="none" 
	d="
M287.058075,139.586014 
	C283.891602,139.966858 280.799347,139.966858 277.022705,139.966858 
	C278.551514,135.755646 279.905151,132.026962 281.312256,127.946396 
	C283.287933,131.464737 285.210114,135.334961 287.058075,139.586014 
z"/>
</svg>